<svg width="41" height="40" viewBox="0 0 41 40" fill="none" xmlns="http://www.w3.org/2000/svg">
<g clip-path="url(#clip0_184_28319)">
<rect x="0.5" width="40" height="40" rx="8" fill="white"/>
<g clip-path="url(#clip1_184_28319)">
<path d="M20.5459 28.9586H19.4373V25.8048C19.0878 24.9218 18.7386 24.9218 18.3897 25.8048V28.9586H17.2811C16.3435 28.9586 15.584 29.7181 15.584 30.6557V31.2857C15.584 31.4305 15.6426 31.5614 15.7373 31.6562C15.8321 31.751 15.963 31.8095 16.1078 31.8095C16.3968 31.8095 16.6316 31.5752 16.6316 31.2857V30.6557C16.6316 30.2967 16.9221 30.0062 17.2811 30.0062H18.3897V31.2857C18.3897 31.4305 18.4483 31.5614 18.543 31.6562C18.6378 31.751 18.7687 31.8095 18.9135 31.8095C19.2026 31.8095 19.4373 31.5752 19.4373 31.2857V30.0062H20.5459C20.9045 30.0062 21.1949 30.2967 21.1949 30.6557V31.2857C21.1949 31.4305 21.2535 31.5614 21.3483 31.6562C21.443 31.751 21.5745 31.8095 21.7187 31.8095C22.0083 31.8095 22.2426 31.5752 22.2426 31.2857V30.6557C22.2426 29.7181 21.483 28.9586 20.5459 28.9586Z" fill="#604533"/>
<path d="M27.2374 11.9552C27.5202 12.6252 26.4941 12.7171 25.9841 12.0967C26.2974 12.7633 26.0969 13.0967 25.6412 13.0557L25.6407 13.0562C24.6724 13.942 23.6644 13.7425 22.7036 12.2157L22.7031 12.2152C21.7743 11.218 22.1641 10.8885 23.7517 11.2081C25.7136 10.401 26.955 11.2857 27.2374 11.9552Z" fill="#D6EAE8"/>
<path d="M27.0407 15.2186C27.0045 14.6657 26.5469 13.7357 25.6407 13.0562C24.9364 12.5267 23.9616 12.149 22.7035 12.2157L22.7031 12.2152C21.3784 11.8434 20.4368 12.0948 20.3159 13.2981C20.2926 14.6825 21.0822 15.1986 22.3102 15.2462C22.5526 15.8776 23.3912 15.9752 23.5202 14.8738C24.3188 16.4348 25.2712 15.8819 25.2497 14.5667C25.735 16.149 27.1055 16.2014 27.0407 15.2186Z" fill="#E7F2F1"/>
<path d="M24.1528 9.95238C24.0504 9.22476 23.2985 8.19048 22.0699 8.19048C20.8408 8.19048 20.5585 8.89571 19.8423 8.99381C19.0847 9.09809 17.3689 7.98524 15.5313 8.6819C13.7004 9.37619 13.0189 11.9495 14.257 12.7171C14.257 12.7171 14.637 12.499 15.2304 12.1876L20.1866 13.2843C20.1866 13.2843 20.2342 13.289 20.3156 13.2981C21.2161 13.0762 22.0461 12.6843 22.7028 12.2152C23.1385 11.9048 23.498 11.56 23.7513 11.2081C24.057 10.7838 24.2085 10.349 24.1528 9.95238Z" fill="#F69552"/>
<path d="M15.2305 12.1876V12.1881C15.8733 12.7652 16.5905 13.1271 17.3324 13.32H17.3328C17.5245 13.682 17.642 13.4598 17.6395 13.2843L18.3895 12.0933V10.7224C17.2195 11.1776 16.0305 11.7676 15.2305 12.1876Z" fill="#DD864A"/>
<path d="M20.316 13.2981C20.2345 13.289 20.1869 13.2843 20.1869 13.2843L19.9379 12.2105C19.9379 12.2105 19.7812 12.1367 19.4374 12.0933C19.2955 12.0757 19.1212 12.0629 18.9136 12.0629C18.7055 12.0629 18.5317 12.0757 18.3898 12.0933C18.046 12.1367 17.8888 12.2105 17.8888 12.2105L17.6398 13.2843C17.6398 13.2843 17.5193 13.2962 17.3331 13.32H17.3326C16.7017 13.401 15.3174 13.6205 15.3174 13.9938C15.3174 14.559 15.5179 15.361 15.8169 16.221C17.7704 17.4313 19.8296 17.4863 22.0098 16.221C22.1274 15.8833 22.2293 15.5548 22.3102 15.2462C22.4355 14.7681 22.5093 14.3371 22.5093 13.9938C22.5093 13.5795 20.804 13.3543 20.316 13.2981Z" fill="#F1C27D"/>
<path d="M23.5632 21.2781C22.5578 21.2076 22.5629 21.9886 23.1556 23.2648C23.6555 23.8375 24.2446 23.7473 24.8865 23.2648C24.4865 22.5952 24.0232 21.9138 23.5632 21.2781Z" fill="#E7F2F1"/>
<path d="M21.1728 18.2657C21.4795 17.6062 21.7747 16.8957 22.0095 16.221C21.6576 15.3067 20.3095 14.6162 18.9133 16.011C17.5166 14.6162 16.1685 15.3067 15.8166 16.221C16.0514 16.8957 16.3466 17.6062 16.6538 18.2657C16.6538 18.2657 14.11 21.1595 12.6904 23.6943C12.6904 23.6943 14.1828 25.6529 18.3895 25.8048C18.5595 25.811 18.7342 25.8143 18.9133 25.8143C19.0923 25.8143 19.2671 25.811 19.4371 25.8048C20.0928 25.781 20.6819 25.7133 21.21 25.6162L21.829 24.5264L22.2033 23.2648L22.9904 20.5071C22.009 19.2176 21.1728 18.2657 21.1728 18.2657Z" fill="#E7F2F1"/>
<path d="M19.4373 10.3538V12.0933C19.2954 12.0757 19.1211 12.0629 18.9135 12.0629C18.7054 12.0629 18.5316 12.0757 18.3896 12.0933V10.7224C18.7444 10.5843 19.0973 10.4586 19.4373 10.3538Z" fill="#604533"/>
<path d="M21.21 25.6162V27.5624C21.21 28.1357 21.6747 28.6005 22.2481 28.6005H27.8028C28.3762 28.6005 28.8409 28.1357 28.8409 27.5624V25.6162H21.21Z" fill="#EA728C"/>
<path d="M28.8409 23.2648V25.6162C28.8409 26.0157 28.5171 26.3395 28.1176 26.3395H21.9333C21.5338 26.3395 21.21 26.0157 21.21 25.6162V23.2648H22.2033L22.4285 24.0435L22.8615 23.9436L23.1557 23.2648H24.8866H26.8952L27.1245 24.1267L27.5408 24.0768L27.8475 23.2648H28.8409Z" fill="#F48CA7"/>
<path d="M27.8479 23.2648V24.4471H26.8955V23.2648V21.9181C26.8955 21.5286 26.5789 21.2119 26.1898 21.2119H23.8617C23.755 21.2119 23.6541 21.2357 23.5636 21.2781C23.3231 21.3905 23.156 21.6352 23.156 21.9181V23.2648V24.4471H22.2036V23.2648V21.9181C22.2036 21.3229 22.5189 20.8 22.9908 20.5071C23.2441 20.3505 23.5427 20.2595 23.8617 20.2595H26.1898C27.1041 20.2595 27.8479 21.0033 27.8479 21.9181V23.2648Z" fill="#FFC05A"/>
<path d="M22.1375 10.5514C22.1375 10.5514 20.6799 10.6352 19.437 11.5191V10.3538C20.7446 9.95 21.8599 9.85524 22.1375 10.5514Z" fill="#DD864A"/>
<path d="M23.5633 21.2781C23.3228 21.3905 23.1557 21.6352 23.1557 21.9181V23.2648H24.8866C24.4866 22.5952 24.0233 21.9138 23.5633 21.2781ZM20.6252 21.8752C19.9952 23.1081 18.7338 24.1881 16.25 24.2143C15.2676 24.2248 14.0928 24.07 12.6904 23.6943C12.6904 23.6943 14.1828 25.6529 18.3895 25.8048C18.5595 25.811 18.7342 25.8143 18.9133 25.8143C19.0923 25.8143 19.2671 25.811 19.4371 25.8048C20.0928 25.781 20.6819 25.7133 21.21 25.6162V23.2648H22.2033V21.9181C22.2033 21.3229 22.5185 20.8 22.9904 20.5071C22.009 19.2176 21.1728 18.2657 21.1728 18.2657C21.1728 18.2657 21.4757 20.21 20.6252 21.8752Z" fill="#D6EAE8"/>
<path d="M15.929 24.528C16.2948 23.5433 16.8089 22.2146 17.1809 21.4765C17.2282 21.3826 17.3428 21.3448 17.4367 21.3921C17.5307 21.4395 17.5684 21.554 17.5211 21.648C17.1378 22.4085 16.5828 23.862 16.2861 24.6607C16.2576 24.7375 16.1849 24.7849 16.1076 24.7849C16.0855 24.7849 16.0631 24.781 16.0412 24.773C15.9427 24.7363 15.8924 24.6266 15.929 24.528ZM12.5243 23.6013C13.7941 21.3336 15.9809 18.7539 16.4291 18.2339C16.0639 17.4366 15.1267 15.2653 15.1267 13.9939C15.1267 13.6728 15.5197 13.4567 16.4408 13.271C16.4749 13.2641 16.5088 13.2576 16.5428 13.2511C16.0584 13.0442 15.6099 12.7647 15.2023 12.4159C14.8705 12.5914 14.5807 12.7514 14.3521 12.8825C14.2914 12.9173 14.2164 12.916 14.1569 12.8792C13.6349 12.5554 13.3778 11.9336 13.4513 11.1733C13.5435 10.2201 14.2126 8.97814 15.4638 8.50362C16.7381 8.02048 17.9459 8.36424 18.8277 8.61519C19.2419 8.73314 19.5994 8.835 19.8167 8.8051C20.0642 8.7711 20.2594 8.64733 20.4855 8.50414C20.84 8.27952 21.2811 8 22.0699 8C23.4348 8 24.2322 9.14919 24.3415 9.92586C24.3831 10.2222 24.3275 10.5363 24.1815 10.8554C25.0763 10.5957 25.7532 10.6983 26.1864 10.8479C26.8685 11.0834 27.2671 11.5362 27.4128 11.8814C27.5645 12.2408 27.4174 12.4903 27.2292 12.604C27.0082 12.7376 26.6537 12.7385 26.3235 12.5898C26.3365 12.7895 26.2842 12.9255 26.2216 13.0151C26.1806 13.0737 26.1289 13.1216 26.0682 13.1587C26.8246 13.8525 27.1975 14.6996 27.2307 15.2061C27.2598 15.6495 27.0343 15.9809 26.6561 16.0503C26.6081 16.0592 26.5586 16.0636 26.5082 16.0636C26.1216 16.0636 25.6759 15.8034 25.3505 15.2664C25.2329 15.6521 25.0064 15.9178 24.7073 15.9925C24.518 16.0399 24.0691 16.0538 23.5915 15.3673C23.4628 15.6746 23.2481 15.8655 22.9772 15.8995C22.7629 15.9261 22.5495 15.8454 22.3821 15.6896C22.0755 16.7043 21.6251 17.7364 21.3973 18.2339C21.622 18.4944 22.2845 19.2729 23.0422 20.2612C23.2894 20.1385 23.5675 20.0691 23.8616 20.0691H26.1894C27.2089 20.0691 28.0383 20.8985 28.0383 21.918V23.0741H28.8409C28.9461 23.0741 29.0314 23.1594 29.0314 23.2646V27.5624C29.0314 28.24 28.4802 28.7911 27.8028 28.7911H22.2483C21.5708 28.7911 21.0196 28.24 21.0196 27.5624V25.842C20.5748 25.9144 20.1091 25.9625 19.6275 25.9864V28.7681H20.5457C21.5864 28.7681 22.4331 29.6148 22.4331 30.6556V31.2857C22.4331 31.6796 22.1127 32 21.7188 32C21.3249 32 21.0045 31.6796 21.0045 31.2857V30.6555C21.0045 30.4025 20.7987 30.1966 20.5456 30.1966H19.6275V31.2857C19.6275 31.6796 19.307 32 18.9132 32C18.5193 32 18.1989 31.6796 18.1989 31.2857V30.1966H17.2808C17.0278 30.1966 16.8218 30.4025 16.8218 30.6555V31.2857C16.8218 31.6796 16.5014 32 16.1076 32C15.7137 32 15.3933 31.6796 15.3933 31.2857V30.6555C15.3933 29.6148 16.24 28.768 17.2807 28.768H18.1988V25.9866C16.1755 25.8851 14.8038 25.3653 13.9836 24.9217C12.9794 24.3786 12.5565 23.8328 12.539 23.8098C12.493 23.7494 12.4872 23.6675 12.5243 23.6013ZM19.2465 28.9585V26.0006C19.1361 26.003 19.025 26.0046 18.9132 26.0046C18.8001 26.0046 18.6894 26.0029 18.5798 26.0004V28.9585C18.5798 29.0637 18.4946 29.149 18.3894 29.149H17.2808C16.4501 29.149 15.7743 29.8248 15.7743 30.6555V31.2857C15.7743 31.4695 15.9238 31.619 16.1076 31.619C16.2914 31.619 16.4409 31.4695 16.4409 31.2857V30.6555C16.4409 30.1924 16.8177 29.8157 17.2808 29.8157H18.3894C18.4946 29.8157 18.5799 29.901 18.5799 30.0061V31.2857C18.5799 31.4695 18.7294 31.619 18.9132 31.619C19.097 31.619 19.2466 31.4695 19.2466 31.2857V30.0061C19.2466 29.901 19.3318 29.8157 19.437 29.8157H20.5457C21.0088 29.8157 21.3855 30.1924 21.3855 30.6555V31.2857C21.3855 31.4695 21.535 31.619 21.7188 31.619C21.9027 31.619 22.0522 31.4695 22.0522 31.2857V30.6555C22.0522 29.8249 21.3764 29.149 20.5457 29.149H19.4371C19.3318 29.149 19.2465 29.0637 19.2465 28.9585ZM28.6505 27.5624V26.357C28.5003 26.4654 28.3167 26.53 28.1178 26.53H21.9333C21.7344 26.53 21.5508 26.4654 21.4006 26.357V27.5624C21.4006 28.0299 21.7808 28.4102 22.2483 28.4102H27.8028C28.2702 28.4101 28.6505 28.0299 28.6505 27.5624ZM27.8478 24.6375H26.8955C26.7903 24.6375 26.705 24.5522 26.705 24.447V23.455H23.3461V24.447C23.3461 24.5522 23.2608 24.6375 23.1556 24.6375H22.2032C22.098 24.6375 22.0128 24.5522 22.0128 24.447V23.455H21.4006V25.6163C21.4006 25.91 21.6396 26.149 21.9333 26.149H28.1178C28.4116 26.149 28.6506 25.91 28.6506 25.6163V23.455H28.0384V24.447C28.0383 24.5522 27.953 24.6375 27.8478 24.6375ZM26.705 21.918C26.705 21.6337 26.4738 21.4024 26.1895 21.4024H23.8868C24.3097 21.9964 24.6808 22.557 24.994 23.074H26.705V21.918ZM23.3461 21.918V23.074H24.5472C24.2498 22.5952 23.9038 22.0802 23.5149 21.5375C23.4115 21.6319 23.3461 21.7673 23.3461 21.918ZM23.8616 20.45C23.0522 20.45 22.3937 21.1085 22.3937 21.918V24.2565H22.9651V21.918C22.9651 21.4236 23.3673 21.0215 23.8616 21.0215H26.1895C26.6838 21.0215 27.0859 21.4236 27.0859 21.918V24.2565H27.6574V21.918C27.6574 21.1085 26.9989 20.45 26.1895 20.45H23.8616ZM25.7989 13.4327C25.2371 12.9256 24.2567 12.3397 22.7652 12.4038C22.2931 12.7333 21.7486 13.0168 21.1749 13.231C21.2444 13.2435 21.3148 13.2568 21.3856 13.271C22.3067 13.4567 22.6997 13.6729 22.6997 13.9939C22.6997 14.3517 22.6255 14.7806 22.5107 15.2302C22.6032 15.4236 22.7693 15.5416 22.9299 15.5215C23.1348 15.4958 23.2847 15.2455 23.3308 14.8519C23.3406 14.7686 23.4037 14.7015 23.4862 14.6866C23.5687 14.6718 23.6514 14.7126 23.6896 14.7872C24.0465 15.4846 24.4018 15.6759 24.6151 15.6229C24.8856 15.5553 25.0683 15.1223 25.0592 14.57C25.0577 14.4751 25.1262 14.3935 25.2199 14.3787C25.3137 14.364 25.4039 14.4202 25.4318 14.511C25.7076 15.41 26.2736 15.7334 26.5874 15.6756C26.7711 15.6419 26.8671 15.4799 26.8508 15.231C26.8221 14.7964 26.4808 14.0483 25.7989 13.4327ZM23.8753 11.3637C23.7123 11.5817 23.5092 11.799 23.2678 12.0115C23.2632 12.0155 23.2584 12.0194 23.2538 12.0234C24.2828 12.0726 25.0982 12.4137 25.7161 12.8686C25.7854 12.8681 25.8692 12.8542 25.9094 12.7968C25.9364 12.758 26.0094 12.5989 25.8115 12.1778C25.7706 12.0909 25.8009 11.987 25.8821 11.9358C25.9633 11.8843 26.07 11.9016 26.131 11.9758C26.4106 12.316 26.8586 12.383 27.0322 12.278C27.0615 12.2603 27.1394 12.2132 27.0618 12.0295C26.9533 11.7723 26.6263 11.4028 26.062 11.208C25.6207 11.0555 24.8853 10.9613 23.8753 11.3637ZM21.7246 9.93957C22.0127 10.0399 22.2111 10.222 22.3144 10.4809C22.3534 10.5786 22.3058 10.6894 22.2081 10.7283C22.1104 10.7674 21.9996 10.7197 21.9606 10.622C21.8992 10.4682 21.781 10.3627 21.5993 10.2994C21.1649 10.1482 20.4513 10.2543 19.6275 10.4987V11.9294C19.873 11.9733 19.9978 12.0281 20.0189 12.038C20.0717 12.0629 20.1102 12.1105 20.1233 12.1674L20.3385 13.0958C22.3956 12.5665 24.12 11.087 23.9642 9.97886C23.87 9.30895 23.1593 8.38095 22.0699 8.38095C21.3917 8.38095 21.0347 8.60719 20.6894 8.82595C20.4368 8.98605 20.1981 9.13729 19.8685 9.18257C19.572 9.22305 19.1976 9.11662 18.7234 8.98162C17.8928 8.74519 16.7553 8.42138 15.5989 8.85986C14.4997 9.27676 13.9117 10.3703 13.8305 11.21C13.7761 11.772 13.9346 12.2322 14.2675 12.4926C15.0743 12.0382 19.9903 9.33624 21.7246 9.93957ZM18.5798 10.8574V11.8839C18.6806 11.8769 18.7908 11.8725 18.9132 11.8725C19.0355 11.8725 19.1458 11.8769 19.2465 11.8839V10.6188C19.0288 10.6911 18.8058 10.7713 18.5798 10.8574ZM17.3465 13.126C17.399 13.1194 17.4456 13.1139 17.4848 13.1094L17.703 12.1674C17.7162 12.1106 17.7547 12.063 17.8075 12.0381C17.8285 12.0282 17.9533 11.9734 18.1988 11.9295V11.007C17.2791 11.3783 16.3411 11.8271 15.5684 12.2249C16.0955 12.6484 16.6923 12.9509 17.3465 13.126ZM15.5077 14.0027C15.5094 14.4287 15.6335 15.0327 15.8602 15.7515C16.1142 15.4074 16.4927 15.1572 16.9197 15.0666C17.5742 14.9275 18.2764 15.169 18.9132 15.7477C19.5501 15.169 20.2523 14.9278 20.9068 15.0665C21.3338 15.1572 21.7122 15.4074 21.9663 15.7515C22.1929 15.0327 22.3171 14.4287 22.3188 14.0027C22.3008 13.9768 22.1505 13.8056 21.2308 13.6289C20.6942 13.5257 20.1734 13.4743 20.1682 13.4738C20.0868 13.4658 20.0196 13.4068 20.0012 13.3272L19.7758 12.3549C19.6485 12.3168 19.368 12.2534 18.9133 12.2534C18.4592 12.2534 18.1788 12.3167 18.0508 12.355L17.8255 13.3272C17.807 13.4068 17.7398 13.4658 17.6584 13.4738C17.6532 13.4743 17.1324 13.5257 16.5958 13.6289C15.676 13.8056 15.5256 13.9768 15.5077 14.0027ZM12.9227 23.6707C13.0819 23.8408 13.4838 24.222 14.1887 24.5995C15.061 25.0667 16.5888 25.6236 18.9132 25.6236C19.6535 25.6236 20.3608 25.5667 21.0196 25.4557V23.301C20.729 22.5681 20.4887 22.0119 20.3053 21.648C20.2579 21.554 20.2957 21.4395 20.3897 21.3921C20.4835 21.3448 20.5981 21.3826 20.6455 21.4765C20.8266 21.8359 21.0599 22.3731 21.3393 23.0741H22.0127V21.918C22.0127 21.3295 22.2894 20.8048 22.7191 20.466C21.8054 19.276 21.0377 18.4006 21.0297 18.3915C20.9798 18.3348 20.9682 18.2539 21 18.1854C21.323 17.4911 21.5948 16.829 21.8063 16.2289C21.6298 15.831 21.2606 15.5311 20.8276 15.4392C20.424 15.3535 19.7877 15.4065 19.0478 16.1455C18.9734 16.2199 18.8529 16.2199 18.7786 16.1455C18.0387 15.4064 17.4025 15.3535 16.9988 15.4392C16.5658 15.5311 16.1967 15.8311 16.0201 16.229C16.2317 16.829 16.5034 17.4912 16.8263 18.1854C16.8582 18.2539 16.8466 18.3348 16.7967 18.3915C16.7718 18.4199 14.3277 21.2109 12.9227 23.6707Z" fill="#3A322B"/>
</g>
</g>
<defs>
<clipPath id="clip0_184_28319">
<rect width="40" height="40" fill="white" transform="translate(0.5)"/>
</clipPath>
<clipPath id="clip1_184_28319">
<rect width="16.5315" height="24" fill="white" transform="translate(12.5 8)"/>
</clipPath>
</defs>
</svg>
