<svg width="41" height="40" viewBox="0 0 41 40" fill="none" xmlns="http://www.w3.org/2000/svg">
<g clip-path="url(#clip0_184_28331)">
<rect x="0.5" width="40" height="40" rx="8" fill="white"/>
<path d="M24.1647 19.7048C23.9238 19.6016 23.6845 19.4946 23.447 19.3837L23.7446 18.7466C23.9751 18.8543 24.2074 18.9582 24.4414 19.0584L24.1647 19.7048ZM22.8183 19.0789C20.6922 18.0102 18.693 16.5814 16.7069 14.7107L17.1889 14.1989C19.1249 16.0223 21.0695 17.4131 23.134 18.4507L22.8183 19.0789ZM16.6245 23.474C16.5783 23.474 16.5326 23.4649 16.49 23.4473C16.4473 23.4296 16.4085 23.4037 16.3759 23.3711L13.5386 20.5337L14.0357 20.0366L16.2728 22.2737V17.4478C16.2728 17.3783 16.2934 17.3103 16.3321 17.2525C16.3707 17.1947 16.4256 17.1496 16.4898 17.123C16.5541 17.0964 16.6247 17.0894 16.6929 17.103C16.7611 17.1165 16.8238 17.15 16.8729 17.1992L19.7103 20.0365L19.2131 20.5337L16.976 18.2965V23.1224C16.976 23.1685 16.9669 23.2143 16.9493 23.2569C16.9316 23.2996 16.9057 23.3383 16.8731 23.371C16.8405 23.4036 16.8017 23.4295 16.7591 23.4472C16.7164 23.4649 16.6707 23.474 16.6245 23.474Z" fill="black"/>
<path d="M31.9258 22.4285H22.9964L22.5252 23.3064L21.9487 24.3806C25.4248 24.3023 28.9226 23.6297 32.1643 22.4168C32.027 22.4278 31.9412 22.4285 31.9258 22.4285Z" fill="#536978"/>
<path d="M6.21279 14.0589C6.10689 14.3776 6.00388 14.6972 5.90377 15.0177C5.83464 15.2385 5.76751 15.46 5.70239 15.682C5.53329 16.2608 5.38669 16.8205 5.26758 17.3752C5.69634 17.0782 6.23346 16.9224 6.85755 16.9224C7.11293 16.9224 7.35164 16.9357 7.57334 16.9621C7.20412 15.9673 6.94334 14.9191 6.74098 13.8647C6.5595 13.859 6.37887 13.9321 6.21279 14.0589Z" fill="#3B515B"/>
<path d="M9.28568 17.6102C9.32411 17.6064 9.36132 17.5946 9.39496 17.5757C9.42861 17.5567 9.45796 17.531 9.48115 17.5001L9.67141 17.2464L9.87082 16.9806L10.0247 16.7755C9.30431 16.5611 8.63733 16.1113 8.14718 15.4107L7.22728 14.0956C7.07133 13.9398 6.90595 13.8699 6.74121 13.8647C6.94357 14.9191 7.20436 15.9673 7.57357 16.9621C8.23718 17.0412 8.74814 17.2383 9.09745 17.5508C9.16573 17.612 9.24455 17.6142 9.28568 17.6102Z" fill="#536978"/>
<path d="M5.05563 27.0755H18.3036C23.7362 27.0749 29.1486 26.4126 34.4212 25.1032L34.4818 25.0426C34.5826 24.9414 34.6759 24.8329 34.7607 24.7179C30.2546 25.5358 25.7174 26.2068 21.1436 26.4928C18.8886 26.6335 16.6283 26.6687 14.37 26.5981C11.1843 26.4991 8.01086 26.1544 4.8596 25.6855C4.85716 25.7018 4.85359 25.718 4.84891 25.7338L4.62117 26.491C4.5794 26.6299 4.60506 26.7762 4.69155 26.8925C4.77803 27.0087 4.91071 27.0755 5.05563 27.0755Z" fill="#A3A3A3"/>
<path d="M35.0959 20.6782C34.3436 19.9572 33.2073 19.3809 33.1592 19.3568C33.1136 19.3338 33.0634 19.321 33.0123 19.3194C31.8324 19.2818 30.6409 19.1438 29.4697 18.9105C29.4565 18.9061 29.4437 18.9007 29.4299 18.8979C28.5625 18.7222 27.7064 18.4947 26.8661 18.2166L26.9483 17.8981L26.2674 17.7225L26.1999 17.9841C25.4988 17.7274 24.811 17.4355 24.1391 17.1096L24.2618 16.8084L23.6105 16.5432L23.5096 16.7912C22.8466 16.4432 22.2019 16.0614 21.5779 15.6475L21.7402 15.3651L21.1306 15.0148L20.9968 15.2478C20.6517 15.0023 20.3139 14.7467 19.9839 14.4812C19.7632 14.3036 19.5403 14.0848 19.3042 13.8532L19.2514 13.8015L19.4207 13.5822L18.8643 13.1525L18.7377 13.3164C18.2784 12.9095 17.7648 12.5506 17.1611 12.4408C16.1264 12.2525 15.0792 12.8521 14.6717 13.8662C14.0154 15.4997 12.3459 16.0752 11.0356 15.7997C11.0176 15.796 10.9992 15.7937 10.9808 15.7929C10.1981 15.6209 9.53706 15.1767 9.06772 14.5059L8.14789 13.1909C8.13617 13.1741 8.12297 13.1584 8.10845 13.1439C7.73108 12.7665 7.19579 12.6144 6.67625 12.737C6.15671 12.8596 5.74595 13.2351 5.57713 13.7415C4.9756 15.5458 4.53271 17.0799 4.32648 18.702C4.22804 19.4762 4.17369 20.2966 4.15569 21.284L4.15583 21.2855C4.15583 21.2862 4.15562 21.2867 4.15562 21.2873C4.15562 21.2873 4.15217 21.6822 4.15105 21.8797V21.8799C4.14866 22.3034 4.15091 22.7333 4.15309 23.1491C4.15435 23.3718 4.15548 23.5947 4.15597 23.8175C4.15597 23.8183 4.15618 23.819 4.15618 23.8198L4.16061 25.5813L3.94792 26.2885C3.84146 26.6424 3.90685 27.0154 4.12735 27.312C4.34785 27.6086 4.6862 27.7787 5.05576 27.7787H18.3037C23.8213 27.7787 29.3331 27.1002 34.6862 25.7618C34.7479 25.7464 34.8044 25.7145 34.8494 25.6694L34.979 25.5399C35.4986 25.0202 35.8425 24.3616 35.9736 23.6349C36.1773 22.5057 35.8491 21.4005 35.0959 20.6782ZM34.7612 21.4718C34.7818 21.4561 34.8025 21.4409 34.8228 21.4247C35.2 21.9162 35.3796 22.5834 35.3152 23.2657L35.1318 23.2945C29.8596 24.119 25.6852 24.5713 21.7548 24.7424L22.9966 22.4286H31.9259C31.9957 22.4286 33.5037 22.4159 34.7357 21.4913C34.7442 21.4848 34.7527 21.4782 34.7612 21.4718ZM29.5495 19.6428C30.6585 19.8528 31.7817 19.9787 32.9097 20.0195C33.1168 20.129 33.7681 20.4865 34.3146 20.9279L34.3048 20.9354C34.2785 20.9549 34.252 20.9735 34.2253 20.9922C34.2137 21.0003 34.2022 21.0088 34.1905 21.0169C34.1517 21.0432 34.1127 21.0685 34.0734 21.0929C34.0676 21.0965 34.0618 21.0998 34.0561 21.1033C34.0218 21.1242 33.9875 21.1448 33.9529 21.1643C33.9437 21.1696 33.9344 21.1745 33.9252 21.1796C33.8941 21.1969 33.8629 21.2139 33.8317 21.2301C32.9016 21.714 31.9376 21.7253 31.9258 21.7254H23.6316C24.3115 21.1739 25.162 20.8681 26.0573 20.8681H27.4674C28.4383 20.8681 29.167 20.4357 29.5495 19.6428ZM6.24418 13.9638C6.28825 13.8301 6.36601 13.7099 6.46997 13.6149C6.57393 13.5199 6.70059 13.4532 6.83776 13.4214C6.97006 13.3896 7.10817 13.3913 7.23966 13.4262C7.37115 13.4612 7.49187 13.5283 7.59095 13.6215L8.49179 14.9091C8.95818 15.5757 9.60582 16.0719 10.3502 16.3414L9.48109 17.5001C9.45789 17.531 9.42854 17.5567 9.3949 17.5757C9.36125 17.5946 9.32404 17.6064 9.28562 17.6102C9.24449 17.6142 9.16567 17.612 9.09732 17.5508C8.63136 17.1339 7.87782 16.9224 6.85766 16.9224C6.23357 16.9224 5.69638 17.0782 5.26768 17.3752C5.50007 16.2924 5.83426 15.1933 6.24418 13.9638ZM5.01871 18.833C5.03178 18.7977 5.04514 18.7627 5.05949 18.729C5.16158 18.4921 5.31852 18.2477 5.55695 18.049L5.54809 18.0451C5.87687 17.7668 6.314 17.6256 6.85759 17.6256C7.90623 17.6256 8.39933 17.8699 8.62841 18.0748C8.82472 18.2506 9.08938 18.3364 9.35474 18.31C9.49012 18.2964 9.62122 18.255 9.73978 18.1882C9.85833 18.1214 9.96175 18.0308 10.0435 17.9221L11.0913 16.525C11.2842 16.5529 11.518 16.573 11.7046 16.573C13.2736 16.5729 14.7209 15.63 15.3243 14.1286C15.6078 13.4227 16.3277 13.0038 17.0355 13.1327C17.4913 13.2156 17.9083 13.5156 18.3072 13.8742L18.047 14.2112L18.6034 14.6409L18.8188 14.3619C19.0545 14.5931 19.2979 14.8316 19.5432 15.029C19.9018 15.3174 20.2693 15.5945 20.6452 15.86L20.4645 16.1745L21.0741 16.5247L21.2274 16.2579C21.8786 16.6881 22.5515 17.0843 23.2436 17.4451L23.1065 17.782L23.7577 18.0471L23.8738 17.7617C24.5746 18.1001 25.2921 18.4027 26.0236 18.6683L25.9335 19.0176L26.6144 19.1932L26.6904 18.8984C27.3944 19.1299 28.1093 19.3271 28.8324 19.4892C28.5542 19.9378 28.0969 20.1649 27.4675 20.1649H26.0573C24.6754 20.1649 23.3836 20.7812 22.5131 21.8556C22.5113 21.8579 22.5099 21.8604 22.5081 21.8628C22.5029 21.8697 22.4979 21.8769 22.4932 21.8842C22.4888 21.8908 22.4845 21.8974 22.4806 21.9041C22.4793 21.9064 22.4777 21.9084 22.4765 21.9107L20.9395 24.7746C18.7817 24.846 16.5917 24.8196 14.4259 24.6954C13.7344 24.6556 13.0437 24.6047 12.3538 24.5428C12.3157 24.459 12.2755 24.3761 12.2333 24.2943C11.5496 22.9614 10.3715 21.9689 8.7973 21.4086C7.49532 20.9451 6.38931 20.9388 6.34213 20.9387C6.34206 20.9387 5.85289 20.9393 5.14379 20.9392L5.14386 20.9387H4.86704C4.88982 20.1516 4.93869 19.4741 5.01871 18.833ZM4.85418 21.884L4.85586 21.6422C5.71817 21.6426 6.34269 21.6419 6.34178 21.6419C6.35211 21.642 7.39119 21.6503 8.58214 22.0784C9.93299 22.5639 10.9209 23.3671 11.529 24.4681L11.503 24.4643C9.52433 24.2642 7.42698 23.9695 5.1272 23.5689L5.12713 23.5688C5.03783 23.5532 4.94769 23.5372 4.85811 23.5215L4.85621 23.1454C4.85403 22.7315 4.85178 22.3036 4.85418 21.884ZM34.4818 25.0426L34.4212 25.1032C29.1487 26.4126 23.7363 27.0749 18.3036 27.0755H5.05569C4.91071 27.0755 4.77803 27.0087 4.69154 26.8924C4.60506 26.776 4.57939 26.6298 4.62116 26.491L4.8489 25.7338C4.85889 25.7006 4.86388 25.6662 4.86381 25.6316L4.86029 24.2362L4.89496 24.2422C7.49863 24.6981 9.84573 25.02 12.0556 25.2242C12.0664 25.2252 12.0772 25.2257 12.088 25.2257C12.0905 25.2257 12.0929 25.2253 12.0954 25.2253C12.8688 25.2968 13.6393 25.3546 14.3855 25.3974C15.7788 25.477 17.174 25.5169 18.5695 25.5169C19.4468 25.5169 20.3226 25.501 21.1925 25.4695C21.1981 25.4692 21.2036 25.4682 21.2091 25.4679C25.2125 25.3203 29.4214 24.8855 34.7411 24.0665V24.0666C34.8714 24.0465 35.0021 24.0264 35.1338 24.0058L35.1454 24.0041L35.1472 24.0038C35.0034 24.3942 34.7763 24.7487 34.4818 25.0426Z" fill="black"/>
<path d="M35.3153 23.2657C35.3798 22.5834 35.2001 21.9162 34.823 21.4246C34.8026 21.4408 34.7819 21.456 34.7614 21.4717C34.7529 21.4782 34.7444 21.4848 34.7358 21.4912C33.7761 22.2115 32.6489 22.3782 32.1646 22.4168H32.1646C28.9229 23.6297 25.4251 24.3023 21.949 24.3806C21.899 24.4738 21.8509 24.5634 21.8058 24.6476L21.7549 24.7424C25.6854 24.5712 29.8597 24.119 35.1319 23.2944C35.1927 23.285 35.2541 23.2753 35.3153 23.2657Z" fill="#3B515B"/>
<path d="M27.4672 20.8681H26.0571C25.1618 20.8681 24.3113 21.1739 23.6313 21.7254H31.9256C31.9375 21.7253 32.9015 21.714 33.8316 21.2301C33.8628 21.2139 33.8939 21.1969 33.925 21.1796C33.9343 21.1745 33.9435 21.1696 33.9528 21.1643C32.5376 20.5091 30.8088 20.2924 29.1914 20.1773H29.191C28.7794 20.6278 28.1907 20.8681 27.4672 20.8681Z" fill="#E64C3C"/>
<path d="M8.58202 22.0784C7.39107 21.6503 6.35199 21.642 6.34165 21.6419C6.34264 21.6419 5.71805 21.6426 4.85574 21.6422C4.85504 21.7301 4.8544 21.8181 4.85405 21.884C4.85166 22.3036 4.85391 22.7315 4.85609 23.1454C4.8568 23.2707 4.8575 23.396 4.85799 23.5215C4.94757 23.5372 5.03778 23.5532 5.12701 23.5688L5.12708 23.5689C7.42686 23.9695 9.52421 24.2642 11.5029 24.4643L11.5289 24.4681C10.9208 23.3671 9.93287 22.5639 8.58202 22.0784Z" fill="#91312A"/>
<path d="M10.2968 21.0547C9.33723 20.2362 8.54341 18.9174 7.98555 17.7551C7.70915 17.6784 7.34366 17.6255 6.85766 17.6255C6.31408 17.6255 5.87695 17.7668 5.54816 18.045L5.55702 18.0489C5.31852 18.2476 5.16166 18.492 5.05956 18.7289C5.04522 18.7627 5.03179 18.7977 5.01878 18.833C4.93877 19.474 4.8899 20.1515 4.86719 20.9387H5.14401L5.14394 20.9392C5.85304 20.9393 6.34227 20.9387 6.34227 20.9387C6.38945 20.9388 7.49547 20.9451 8.79745 21.4086C10.3716 21.9689 11.5498 22.9614 12.2335 24.2943C12.2757 24.3761 12.3159 24.459 12.354 24.5428C13.0438 24.6047 13.7346 24.6556 14.426 24.6954C16.5949 24.8195 18.7683 24.8459 20.9396 24.7746L21.0895 24.4954C20.9085 24.4998 20.7299 24.5 20.5624 24.5C16.9062 24.4297 13.1093 23.5156 10.2968 21.0547Z" fill="#A3A3A3"/>
</g>
<defs>
<clipPath id="clip0_184_28331">
<rect width="40" height="40" fill="white" transform="translate(0.5)"/>
</clipPath>
</defs>
</svg>
