<svg width="32" height="32" viewBox="0 0 32 32" fill="none" xmlns="http://www.w3.org/2000/svg">
<path d="M20.3754 28.0093L22.9775 23.5024L22.3179 23.1216L19.7158 27.6285L20.3754 28.0093Z" fill="#848F99"/>
<path d="M24.1106 23.5702L28.6801 15.6557C28.7974 15.4537 28.8735 15.2306 28.9043 14.9991C28.935 14.7676 28.9197 14.5323 28.8593 14.3067C28.7989 14.0811 28.6945 13.8697 28.5521 13.6846C28.4098 13.4995 28.2322 13.3443 28.0297 13.228L21.6831 24.2208C21.8851 24.338 22.1082 24.4141 22.3397 24.4449C22.5712 24.4756 22.8065 24.4602 23.032 24.3998C23.2575 24.3393 23.4689 24.2349 23.654 24.0926C23.8391 23.9502 23.9943 23.7727 24.1106 23.5702Z" fill="#848F99"/>
<path fill-rule="evenodd" clip-rule="evenodd" d="M20.3556 28.0517C20.2639 28.2105 20.1419 28.3497 19.9964 28.4613C19.8509 28.5729 19.6849 28.6548 19.5078 28.7023C19.1501 28.7981 18.7689 28.748 18.4482 28.5628C18.1275 28.3777 17.8935 28.0727 17.7976 27.715C17.7017 27.3573 17.7519 26.9761 17.9371 26.6554C18.1222 26.3347 18.4272 26.1007 18.7849 26.0048C19.1426 25.9089 19.5237 25.9591 19.8445 26.1442C20.1652 26.3294 20.3992 26.6344 20.4951 26.9921C20.5909 27.3498 20.5408 27.731 20.3556 28.0517ZM19.6961 27.6709C19.7802 27.5251 19.803 27.3519 19.7595 27.1893C19.7159 27.0267 19.6096 26.8881 19.4638 26.8039C19.318 26.7198 19.1448 26.697 18.9822 26.7405C18.8196 26.7841 18.681 26.8905 18.5968 27.0362C18.5127 27.182 18.4899 27.3552 18.5334 27.5178C18.577 27.6804 18.6834 27.819 18.8291 27.9032C18.9749 27.9873 19.1481 28.0101 19.3107 27.9666C19.4733 27.923 19.6119 27.8166 19.6961 27.6709Z" fill="#CC3737"/>
<path d="M26.6456 28.0093L24.0435 23.5022L24.703 23.1214L27.3051 27.6285L26.6456 28.0093Z" fill="#F5F8FA"/>
<path d="M22.9101 23.5702L18.3405 15.6554C18.2234 15.4535 18.1472 15.2304 18.1165 14.9989C18.0858 14.7674 18.1011 14.5321 18.1615 14.3066C18.2219 14.0811 18.3263 13.8697 18.4686 13.6846C18.611 13.4995 18.7885 13.3443 18.9909 13.228L25.3376 24.2206C25.1356 24.3378 24.9125 24.4139 24.681 24.4446C24.4495 24.4754 24.2143 24.4601 23.9887 24.3996C23.7632 24.3392 23.5518 24.2348 23.3667 24.0925C23.1816 23.9501 23.0264 23.7727 22.9101 23.5702Z" fill="#DFE9EF"/>
<path fill-rule="evenodd" clip-rule="evenodd" d="M29.0627 26.6171C29.2478 26.9378 29.298 27.3189 29.2021 27.6766C29.1063 28.0343 28.8722 28.3393 28.5515 28.5245C28.2308 28.7096 27.8496 28.7598 27.4919 28.6639C27.1342 28.5681 26.8292 28.3341 26.6441 28.0133C26.4589 27.6926 26.4088 27.3115 26.5046 26.9538C26.6005 26.596 26.8345 26.2911 27.1552 26.1059C27.476 25.9207 27.8571 25.8706 28.2148 25.9665C28.5725 26.0623 28.8775 26.2963 29.0627 26.6171ZM28.4031 26.9979C28.319 26.8521 28.1803 26.7457 28.0177 26.7022C27.8552 26.6586 27.6819 26.6814 27.5362 26.7656C27.3904 26.8497 27.284 26.9884 27.2405 27.1509C27.1969 27.3135 27.2197 27.4868 27.3039 27.6325C27.388 27.7783 27.5267 27.8847 27.6892 27.9282C27.8518 27.9718 28.0251 27.949 28.1708 27.8648C28.3166 27.7806 28.423 27.642 28.4665 27.4794C28.5101 27.3169 28.4873 27.1436 28.4031 26.9979Z" fill="#FF4940"/>
<path d="M22.0732 22.1214L22.91 23.5702C23.0263 23.7727 23.1815 23.9501 23.3666 24.0925C23.5517 24.2348 23.7631 24.3392 23.9886 24.3996C24.2141 24.4601 24.4494 24.4754 24.6809 24.4446C24.9123 24.4139 25.1355 24.3378 25.3374 24.2206L23.6124 21.2328L22.0732 22.1214Z" fill="#F5F8FA"/>
<path d="M23.5888 23.1287C23.729 23.1287 23.8427 23.0151 23.8427 22.8749C23.8427 22.7346 23.729 22.621 23.5888 22.621C23.4486 22.621 23.335 22.7346 23.335 22.8749C23.335 23.0151 23.4486 23.1287 23.5888 23.1287Z" fill="#DFE9EF"/>
<path d="M10.25 27.5C10.25 28.1925 10.8075 28.75 11.5 28.75H17.125C17.4713 28.75 17.75 28.4713 17.75 28.125C17.75 27.7787 17.4713 27.5 17.125 27.5H13.15C13.0679 27.5002 12.9865 27.4841 12.9106 27.4528C12.8347 27.4214 12.7658 27.3754 12.7077 27.3173C12.6496 27.2592 12.6036 27.1903 12.5722 27.1144C12.5409 27.0385 12.5248 26.9571 12.525 26.875C12.525 26.5287 12.8037 26.25 13.15 26.25H17.125C17.4713 26.25 17.75 25.9713 17.75 25.625C17.75 25.2787 17.4713 25 17.125 25H13.15C13.0679 25.0002 12.9865 24.9841 12.9106 24.9528C12.8347 24.9214 12.7658 24.8754 12.7077 24.8173C12.6496 24.7592 12.6036 24.6903 12.5722 24.6144C12.5409 24.5385 12.5248 24.4571 12.525 24.375C12.525 24.0287 12.8037 23.75 13.15 23.75H17.125C17.4713 23.75 17.75 23.4712 17.75 23.125C17.75 22.7788 17.4713 22.5 17.125 22.5H13.15C13.0679 22.5002 12.9865 22.4841 12.9106 22.4528C12.8347 22.4214 12.7658 22.3754 12.7077 22.3173C12.6496 22.2592 12.6036 22.1903 12.5722 22.1144C12.5409 22.0385 12.5248 21.9571 12.525 21.875C12.525 21.5288 12.8037 21.25 13.15 21.25H17.125C17.4713 21.25 17.75 20.9712 17.75 20.625C17.75 20.2788 17.4713 20 17.125 20H13.15C13.0679 20.0002 12.9865 19.9841 12.9106 19.9528C12.8347 19.9214 12.7658 19.8754 12.7077 19.8173C12.6496 19.7592 12.6036 19.6903 12.5722 19.6144C12.5409 19.5385 12.5248 19.4571 12.525 19.375C12.525 19.0288 12.8037 18.75 13.15 18.75H17.125C17.4713 18.75 17.75 18.4712 17.75 18.125C17.75 17.7788 17.4713 17.5 17.125 17.5H13.15C13.0679 17.5002 12.9865 17.4841 12.9106 17.4528C12.8347 17.4214 12.7658 17.3754 12.7077 17.3173C12.6496 17.2592 12.6036 17.1903 12.5722 17.1144C12.5409 17.0385 12.5248 16.9571 12.525 16.875C12.525 16.5288 12.8037 16.25 13.15 16.25H17.125C17.4713 16.25 17.75 15.9712 17.75 15.625C17.75 15.2787 17.4713 15 17.125 15H13.15C13.0679 15.0002 12.9865 14.9841 12.9106 14.9528C12.8347 14.9214 12.7658 14.8754 12.7077 14.8173C12.6496 14.7592 12.6036 14.6903 12.5722 14.6144C12.5409 14.5385 12.5248 14.4571 12.525 14.375C12.525 14.0287 12.8037 13.75 13.15 13.75H17.125C17.4713 13.75 17.75 13.4713 17.75 13.125C17.75 12.7787 17.4713 12.5 17.125 12.5H13.15C13.0679 12.5002 12.9865 12.4841 12.9106 12.4528C12.8347 12.4214 12.7658 12.3754 12.7077 12.3173C12.6496 12.2592 12.6036 12.1903 12.5722 12.1144C12.5409 12.0385 12.5248 11.9571 12.525 11.875C12.525 11.5287 12.8037 11.25 13.15 11.25H17.125C17.4713 11.25 17.75 10.9713 17.75 10.625C17.75 10.2787 17.4713 10 17.125 10H13.15C13.0679 10.0002 12.9865 9.98411 12.9106 9.95276C12.8347 9.92141 12.7658 9.87538 12.7077 9.81731C12.6496 9.75924 12.6036 9.69028 12.5722 9.61437C12.5409 9.53847 12.5248 9.45712 12.525 9.375C12.525 9.02875 12.8037 8.75 13.15 8.75H17.125C17.4713 8.75 17.75 8.47125 17.75 8.125C17.75 7.77875 17.4713 7.5 17.125 7.5H11.5C10.8075 7.5 10.25 8.0575 10.25 8.75V27.5Z" fill="#3AA7F9"/>
<path d="M11.25 27.5V8.75" stroke="#2F84D1" stroke-width="2" stroke-linecap="round" stroke-linejoin="round"/>
<path d="M8.825 18.75H5.425C5.19028 18.75 5 18.9179 5 19.125V19.625C5 19.8321 5.19028 20 5.425 20H8.825C9.05972 20 9.25 19.8321 9.25 19.625V19.125C9.25 18.9179 9.05972 18.75 8.825 18.75Z" fill="#FFC31A"/>
<path d="M9.5 27.75H4.75C4.47386 27.75 4.25 27.9739 4.25 28.25C4.25 28.5262 4.47386 28.75 4.75 28.75H9.5C9.77614 28.75 10 28.5262 10 28.25C10 27.9739 9.77614 27.75 9.5 27.75Z" fill="#D12869"/>
<path d="M10.25 20.75H4C3.30964 20.75 2.75 21.3096 2.75 22V27C2.75 27.6904 3.30964 28.25 4 28.25H10.25C10.9404 28.25 11.5 27.6904 11.5 27V22C11.5 21.3096 10.9404 20.75 10.25 20.75Z" fill="#FF3E96"/>
<path d="M9.75 19.5H4.5V20.75H9.75V19.5Z" fill="#D12869"/>
<path fill-rule="evenodd" clip-rule="evenodd" d="M4.5 19.875H9.75H4.5ZM4.5 20.375H9.75H4.5Z" fill="#FF3E96"/>
<path d="M4.5 19.875H9.75M4.5 20.375H9.75" stroke="#FF3E96"/>
<path d="M10.25 23.25H4V26H10.25V23.25Z" fill="#FFD2E9"/>
<path d="M9.25 17.9877C9.10402 18.2208 8.9013 18.4129 8.66082 18.5462C8.42034 18.6795 8.14996 18.7497 7.875 18.75C7.83327 18.7495 7.79157 18.7474 7.75 18.7437V19.25H9.25V17.9877Z" fill="#FFC31A"/>
<path d="M4.75 24.125H9.5M4.75 25.125H9.5" stroke="#2F84D1"/>
<path d="M6.375 3.75001C6.375 3.69248 6.38823 3.63573 6.41367 3.58414C6.43911 3.53255 6.47607 3.48751 6.52171 3.45249C6.56734 3.41747 6.62042 3.39341 6.67684 3.38219C6.73325 3.37097 6.7915 3.37287 6.84706 3.38776C6.90262 3.40265 6.95401 3.43013 6.99726 3.46805C7.04051 3.50598 7.07445 3.55335 7.09646 3.6065C7.11847 3.65964 7.12796 3.71713 7.1242 3.77453C7.12043 3.83192 7.10351 3.88769 7.07475 3.93751C6.96425 4.09401 6.875 4.25001 6.875 4.36501V5.13476M6.875 5.89626V5.12676M8.1245 7.79125V9.69625" stroke="black" stroke-linecap="round" stroke-linejoin="round"/>
<path d="M6.875 9.75V11.25" stroke="black"/>
<path d="M5.62549 7.79124V9.69624" stroke="black" stroke-linecap="round" stroke-linejoin="round"/>
<path d="M5 8.9975V6.8325L6.875 5.75L8.75 6.8325V8.9975L6.875 10.08L5 8.9975Z" fill="#FFC31A"/>
<path d="M6 8.42V7.4095L6.875 6.9045L7.75 7.4095V8.42L6.875 8.925L6 8.42Z" fill="#FF4940"/>
<path d="M7.75 8.42026V7.4095L8.75 6.8325V8.9975L7.75 8.42026ZM6 7.41L6.875 6.9045V5.75L5 6.8325L6 7.41ZM6.875 8.92551L6 8.42L5 8.9975L6.875 10.08V8.92551Z" fill="#FF9C1A"/>
<path d="M6.875 12.125C7.15114 12.125 7.375 11.9011 7.375 11.625C7.375 11.3489 7.15114 11.125 6.875 11.125C6.59886 11.125 6.375 11.3489 6.375 11.625C6.375 11.9011 6.59886 12.125 6.875 12.125Z" stroke="black" stroke-linecap="round" stroke-linejoin="round"/>
<path d="M6.875 11.75C6.94404 11.75 7 11.694 7 11.625C7 11.556 6.94404 11.5 6.875 11.5C6.80596 11.5 6.75 11.556 6.75 11.625C6.75 11.694 6.80596 11.75 6.875 11.75Z" fill="#FF4940"/>
<path d="M5.42487 10.9812C5.39834 10.9773 5.37329 10.9666 5.35213 10.9501C5.33097 10.9337 5.31443 10.912 5.30412 10.8873C5.25587 10.7643 5.36112 10.6417 5.48212 10.6142C5.66887 10.5717 5.84012 10.7163 5.87037 10.8893C5.91212 11.126 5.71612 11.3362 5.47937 11.3667C5.17637 11.4055 4.91162 11.1705 4.87937 10.8858C4.85287 10.6475 4.98387 10.4147 5.19512 10.2937L5.29262 10.2328C5.49862 10.1193 5.62537 9.90975 5.62537 9.68275M8.32587 10.9655C8.35241 10.9616 8.3775 10.951 8.3987 10.9345C8.4199 10.9181 8.4365 10.8965 8.44687 10.8717C8.49487 10.7485 8.38987 10.626 8.26887 10.5985C8.08212 10.5562 7.91087 10.7008 7.88037 10.8735C7.83887 11.1103 8.03487 11.3207 8.27162 11.351C8.57437 11.3897 8.83937 11.1548 8.87137 10.8703C8.89812 10.632 8.76712 10.3992 8.55562 10.2782L8.45812 10.2173C8.25237 10.1038 8.12562 9.894 8.12562 9.66725" stroke="black" stroke-linecap="round"/>
<path d="M6.875 5.5C7.08211 5.5 7.25 5.33211 7.25 5.125C7.25 4.91789 7.08211 4.75 6.875 4.75C6.66789 4.75 6.5 4.91789 6.5 5.125C6.5 5.33211 6.66789 5.5 6.875 5.5Z" fill="#FF4940"/>
<path d="M6.5 3.96651C6.462 3.94457 6.43044 3.913 6.4085 3.875C6.38655 3.837 6.375 3.79388 6.375 3.75" stroke="black" stroke-linecap="round" stroke-linejoin="round"/>
</svg>
