<svg width="16" height="16" viewBox="0 0 16 16" fill="none" xmlns="http://www.w3.org/2000/svg">
<path d="M0.783104 14.6358C1.60143 13.8174 2.68279 13.3206 5.98533 12.1515C8.29419 11.3332 10.2816 10.6902 10.4277 10.6902C10.8661 10.6902 10.1062 12.4438 9.52168 12.7361C9.22942 12.9114 7.56354 13.379 5.8392 13.7882C4.11487 14.1974 2.1275 14.7819 1.39685 15.1034C-0.327483 15.8633 -0.385936 15.8048 0.783104 14.6358Z" fill="black"/>
<path d="M1.98127 11.9469C2.47811 11.2455 3.15031 10.5148 3.50102 10.281C4.67006 9.55035 12.7657 6.18936 12.9118 6.36471C12.9995 6.45239 12.9995 6.86155 12.8826 7.27072C12.5319 8.70279 11.4505 9.40422 8.29409 10.281C6.65744 10.7486 4.3778 11.5962 3.20876 12.1807L1.10449 13.2328L1.98127 11.9469Z" fill="black"/>
<path d="M2.53662 10.2811C2.53662 9.93043 3.47186 8.23532 4.17328 7.27086C4.61167 6.71557 6.18988 5.63421 8.29415 4.46517C11.2752 2.82851 15.0454 0.841141 15.776 0.519655C16.1852 0.315073 15.9806 1.74715 15.3961 2.97464C14.7239 4.31904 14.227 4.64052 9.66777 6.39408C6.2191 7.70925 4.84548 8.4399 3.55953 9.55049C3.00424 10.0473 2.53662 10.3688 2.53662 10.2811Z" fill="black"/>
</svg>
