<svg width="41" height="40" viewBox="0 0 41 40" fill="none" xmlns="http://www.w3.org/2000/svg">
<g clip-path="url(#clip0_184_28349)">
<rect x="0.5" width="40" height="40" rx="8" fill="white"/>
<path d="M21.9728 12.5684C22.0863 12.6405 22.2171 12.6808 22.3515 12.685C22.4859 12.6892 22.619 12.6572 22.7368 12.5924C22.8546 12.5275 22.9528 12.4322 23.0211 12.3163C23.0894 12.2005 23.1253 12.0684 23.125 11.9339V10.4381C23.1251 10.3033 23.0889 10.1711 23.0203 10.0551C22.9517 9.93911 22.8533 9.84369 22.7352 9.77881C22.6204 9.71495 22.4908 9.68276 22.3595 9.68553C22.2282 9.6883 22.1 9.72593 21.988 9.79456L20.5 10.6466L19.0272 9.80375C18.9137 9.73164 18.7829 9.69138 18.6485 9.68716C18.5141 9.68294 18.3811 9.71493 18.2633 9.77978C18.1455 9.84462 18.0473 9.93994 17.979 10.0557C17.9107 10.1716 17.8748 10.3036 17.875 10.4381V11.9339C17.8749 12.0687 17.9111 12.2009 17.9797 12.3169C18.0483 12.4329 18.1467 12.5283 18.2648 12.5932C18.3765 12.6544 18.5018 12.6865 18.6291 12.6866C18.7645 12.6874 18.8974 12.6495 19.012 12.5774L20.5 11.7254L21.9728 12.5684ZM22.375 10.4381L22.3774 11.9367L21.0676 11.1862L22.375 10.4381ZM18.625 11.9339L18.6226 10.4354L19.9324 11.1858L18.625 11.9339Z" fill="black"/>
<path d="M10.7162 14.9017C10.7144 14.9073 10.7144 14.9148 10.7125 14.9204C10.7013 14.9804 9.58 20.8136 9.62688 25.2667L9.625 29.2679C9.62525 29.4668 9.70435 29.6574 9.84494 29.798C9.98554 29.9386 10.1762 30.0177 10.375 30.0179H11.8038C11.9956 30.0178 12.1801 29.9443 12.3195 29.8125C12.459 29.6808 12.5427 29.5007 12.5538 29.3092L12.9062 23.0242L14.5169 17.3936C15.0231 18.3104 15.7206 20.5117 14.6594 24.9292L13.2719 29.7798C13.2313 29.9203 13.2328 30.0695 13.2761 30.2091C13.3194 30.3488 13.4027 30.4726 13.5156 30.5654C13.9956 30.9611 15.4187 31.9998 17.0538 31.9998C17.5704 32.0019 18.0814 31.8926 18.5519 31.6792C18.5901 31.6623 18.625 31.6388 18.655 31.6098C18.7056 31.5611 19.8906 30.3986 20.1175 26.7479V21.2129C19.973 21.2777 19.8165 21.3115 19.6581 21.3123H19.6562C19.4692 21.3129 19.285 21.2665 19.1206 21.1774C18.9561 21.0883 18.8167 20.9593 18.715 20.8023L14.1344 13.7992C13.9213 13.4693 13.8452 13.0693 13.9222 12.6843C13.9992 12.2992 14.2233 11.9593 14.5469 11.7367L17.2206 9.92169C17.2959 9.71388 17.4163 9.52538 17.5733 9.36981C17.7303 9.21423 17.9199 9.09547 18.1283 9.02209C18.3368 8.94871 18.559 8.92255 18.7788 8.94551C18.9986 8.96846 19.2106 9.03995 19.3994 9.15481L20.5 9.78294L21.6006 9.15481C21.7894 9.03995 22.0014 8.96846 22.2212 8.94551C22.441 8.92255 22.6632 8.94871 22.8717 9.02209C23.0801 9.09547 23.2697 9.21423 23.4267 9.36981C23.5837 9.52538 23.7041 9.71388 23.7794 9.92169L26.4513 11.7367C26.7755 11.9587 27.0001 12.2987 27.0772 12.684C27.1543 13.0693 27.0777 13.4695 26.8638 13.7992L22.285 20.8023C22.183 20.959 22.0435 21.0877 21.8791 21.1768C21.7147 21.2659 21.5307 21.3125 21.3438 21.3123H21.3419C21.1834 21.3125 21.0267 21.2786 20.8825 21.2129V26.7479C21.1094 30.3986 22.2944 31.5611 22.345 31.6098C22.375 31.6388 22.4099 31.6623 22.4481 31.6792C24.6512 32.6748 26.86 31.0792 27.4844 30.5654C27.5973 30.4726 27.6806 30.3488 27.7239 30.2091C27.7672 30.0695 27.7687 29.9203 27.7281 29.7798L26.3444 24.9442C25.2794 20.5136 25.9788 18.3086 26.4831 17.3917L28.0938 23.0242L28.4462 29.3092C28.4573 29.5007 28.541 29.6808 28.6805 29.8125C28.8199 29.9443 29.0044 30.0178 29.1962 30.0179H30.6231C30.8224 30.0176 31.0135 29.9383 31.1545 29.7974C31.2954 29.6564 31.3747 29.4654 31.375 29.2661L31.3731 25.2704C31.42 20.8136 30.2987 14.9804 30.2875 14.9204C30.2856 14.9148 30.2856 14.9073 30.2838 14.9017C29.4794 11.7142 27.8275 10.7523 27.745 10.7054C27.3409 10.5121 26.9251 10.3443 26.5 10.2029C25.7781 9.94419 25.03 9.67981 24.5162 9.18106C24.4581 9.12481 24.4019 9.06669 24.3456 9.01044C24.0607 8.6722 23.6913 8.41538 23.275 8.26606C23.2556 8.25921 23.2355 8.25481 23.215 8.25294L21.3063 8.00169C21.2894 7.99981 19.7106 7.99981 19.6938 8.00169L17.785 8.25294C17.7645 8.25481 17.7444 8.25921 17.725 8.26606C17.3087 8.41538 16.9393 8.6722 16.6544 9.01044C16.0506 9.62356 15.2969 9.91794 14.5 10.2029C14.0701 10.3458 13.6499 10.5162 13.2419 10.7129C13.1725 10.7523 11.5206 11.7142 10.7162 14.9017ZM11.8038 29.2679H10.375V27.8748H11.8825L11.8038 29.2679ZM18.25 23.5623C18.3242 23.5623 18.3967 23.5843 18.4583 23.6255C18.52 23.6667 18.5681 23.7253 18.5965 23.7938C18.6248 23.8623 18.6323 23.9377 18.6178 24.0105C18.6033 24.0832 18.5676 24.15 18.5152 24.2025C18.4627 24.2549 18.3959 24.2906 18.3232 24.3051C18.2504 24.3196 18.175 24.3121 18.1065 24.2838C18.038 24.2554 17.9794 24.2073 17.9382 24.1457C17.897 24.084 17.875 24.0115 17.875 23.9373C17.8753 23.8379 17.9149 23.7427 17.9852 23.6725C18.0554 23.6022 18.1506 23.5626 18.25 23.5623ZM16.2062 26.6317C16.2378 26.5375 16.3056 26.4596 16.3945 26.4153C16.4835 26.371 16.5864 26.3639 16.6806 26.3954L17.8056 26.7704C17.8902 26.7983 17.9621 26.8554 18.0083 26.9315C18.0546 27.0076 18.0722 27.0977 18.0579 27.1856C18.0437 27.2735 17.9986 27.3534 17.9307 27.411C17.8628 27.4686 17.7765 27.5001 17.6875 27.4998C17.6474 27.5 17.6075 27.4937 17.5694 27.4811L16.4444 27.1061C16.3976 27.0906 16.3543 27.066 16.317 27.0338C16.2797 27.0016 16.2491 26.9623 16.2269 26.9183C16.2048 26.8742 16.1916 26.8262 16.1881 26.777C16.1845 26.7279 16.1907 26.6785 16.2062 26.6317ZM22.375 23.9373C22.375 23.8631 22.397 23.7906 22.4382 23.729C22.4794 23.6673 22.538 23.6192 22.6065 23.5909C22.675 23.5625 22.7504 23.555 22.8232 23.5695C22.8959 23.584 22.9627 23.6197 23.0152 23.6721C23.0676 23.7246 23.1033 23.7914 23.1178 23.8642C23.1323 23.9369 23.1248 24.0123 23.0965 24.0808C23.0681 24.1493 23.02 24.2079 22.9583 24.2491C22.8967 24.2903 22.8242 24.3123 22.75 24.3123C22.6506 24.312 22.5554 24.2724 22.4852 24.2022C22.4149 24.1319 22.3753 24.0367 22.375 23.9373ZM24.5556 27.1061L23.4306 27.4811C23.3927 27.4941 23.3526 27.4998 23.3125 27.4979C23.2347 27.4959 23.1593 27.4707 23.0958 27.4256C23.0324 27.3805 22.9838 27.3176 22.9562 27.2448C22.9407 27.198 22.9345 27.1486 22.9381 27.0995C22.9416 27.0503 22.9548 27.0023 22.9769 26.9582C22.9991 26.9142 23.0297 26.8749 23.067 26.8427C23.1043 26.8105 23.1476 26.7859 23.1944 26.7704L24.3194 26.3954C24.3661 26.3797 24.4155 26.3733 24.4647 26.3766C24.5139 26.38 24.5619 26.3931 24.6061 26.415C24.6502 26.437 24.6896 26.4675 24.7219 26.5048C24.7542 26.542 24.7789 26.5853 24.7944 26.6321C24.81 26.6789 24.8162 26.7283 24.8126 26.7775C24.809 26.8267 24.7957 26.8747 24.7735 26.9187C24.7513 26.9627 24.7207 27.002 24.6833 27.0341C24.6459 27.0663 24.6025 27.0907 24.5556 27.1061ZM30.6231 27.8748V29.2679H29.1962L29.1175 27.8748H30.6231Z" fill="black"/>
<path d="M17.1248 10.8931L14.9688 12.3575C14.8069 12.4686 14.6948 12.6385 14.6563 12.831C14.6177 13.0236 14.6559 13.2235 14.7625 13.3884L19.3422 20.3924C19.3896 20.465 19.4607 20.5188 19.5434 20.5448C19.6261 20.5708 19.7152 20.5674 19.7956 20.5352C19.876 20.5029 19.9428 20.4438 19.9846 20.3679C20.0263 20.2919 20.0405 20.2039 20.0247 20.1187L18.7793 13.4263C18.5094 13.4596 18.2356 13.4134 17.9916 13.2931L18.9447 18.4138L15.3903 12.9781L17.1248 11.7999V10.8931ZM23.0076 13.2931C22.7637 13.4133 22.49 13.4596 22.2201 13.4263L20.9746 20.1187C20.9588 20.2039 20.9729 20.2919 21.0147 20.3679C21.0565 20.4438 21.1233 20.5029 21.2037 20.5352C21.2841 20.5674 21.3732 20.5708 21.4559 20.5448C21.5385 20.5188 21.6096 20.465 21.6571 20.3924L26.2368 13.3884C26.3434 13.2235 26.3815 13.0236 26.343 12.831C26.3045 12.6385 26.1924 12.4686 26.0305 12.3575L23.8748 10.8935V11.8001L25.609 12.9779L22.0548 18.4138L23.0076 13.2931Z" fill="black"/>
</g>
<defs>
<clipPath id="clip0_184_28349">
<rect width="40" height="40" fill="white" transform="translate(0.5)"/>
</clipPath>
</defs>
</svg>
