<svg width="41" height="40" viewBox="0 0 41 40" fill="none" xmlns="http://www.w3.org/2000/svg">
<g clip-path="url(#clip0_184_28367)">
<rect x="0.5" width="40" height="40" rx="8" fill="white"/>
<path d="M31 23.5C31 19.683 28.47 16.446 25 15.376V14.5C24.9987 14.1909 24.902 13.8897 24.723 13.6377C24.544 13.3856 24.2915 13.195 24 13.092V10.5C24 10.3674 23.9473 10.2402 23.8536 10.1464C23.7598 10.0527 23.6326 10 23.5 10H21.5C21.3674 10 21.2402 10.0527 21.1464 10.1464C21.0527 10.2402 21 10.3674 21 10.5V11.5H19.952C19.612 9.53 17.3 8 14.5 8C11.467 8 9 9.794 9 12C9 14.206 11.467 16 14.5 16C17.3 16 19.612 14.47 19.952 12.5H21V13.092C20.42 13.299 20 13.849 20 14.5V15.376C16.53 16.446 14 19.683 14 23.5C14 26.745 15.829 29.568 18.508 31H18.5C18.3674 31 18.2402 31.0527 18.1464 31.1464C18.0527 31.2402 18 31.3674 18 31.5C18 31.6326 18.0527 31.7598 18.1464 31.8536C18.2402 31.9473 18.3674 32 18.5 32H26.5C26.6326 32 26.7598 31.9473 26.8536 31.8536C26.9473 31.7598 27 31.6326 27 31.5C27 31.3674 26.9473 31.2402 26.8536 31.1464C26.7598 31.0527 26.6326 31 26.5 31H26.492C27.8525 30.2757 28.9907 29.1954 29.7847 27.8743C30.5787 26.5533 30.9988 25.0413 31 23.5Z" fill="#303C42"/>
<path d="M10.002 12C10.103 11.717 11.602 11 14.501 11C17.411 11 18.908 11.722 18.998 11.988L18.999 11.996C18.914 12.276 17.416 13 14.501 13C11.601 13 10.103 12.283 10.002 12ZM14.5 9C16.184 9 17.637 9.627 18.408 10.542C17.347 10.176 15.898 10 14.501 10C13.103 10 11.653 10.176 10.591 10.543C11.362 9.627 12.816 9 14.5 9Z" fill="#EF5451"/>
<path opacity="0.2" d="M14.4998 9C16.1838 9 17.6368 9.627 18.4078 10.542C17.3468 10.176 15.8978 10 14.5008 10C13.1028 10 11.6528 10.176 10.5908 10.543C11.3618 9.627 12.8158 9 14.4998 9Z" fill="white"/>
<path d="M14.4998 15C12.8158 15 11.3618 14.373 10.5898 13.457C11.6538 13.824 13.1038 14 14.5018 14C15.8988 14 17.3478 13.824 18.4088 13.458C17.6368 14.373 16.1838 15 14.4998 15Z" fill="#EF5451"/>
<path opacity="0.1" d="M14.4998 15C12.8158 15 11.3618 14.373 10.5898 13.457C11.6538 13.824 13.1038 14 14.5018 14C15.8988 14 17.3478 13.824 18.4088 13.458C17.6368 14.373 16.1838 15 14.4998 15Z" fill="#010101"/>
<path d="M22 11H23V13H22V11Z" fill="#F3F3F3"/>
<path d="M21 14.5C21 14.3674 21.0527 14.2402 21.1464 14.1464C21.2402 14.0527 21.3674 14 21.5 14H23.5C23.6326 14 23.7598 14.0527 23.8536 14.1464C23.9473 14.2402 24 14.3674 24 14.5V15.14C23.512 15.053 23.013 15 22.5 15C21.987 15 21.488 15.053 21 15.14V14.5Z" fill="#E6E6E5"/>
<path d="M22.5 31C26.6421 31 30 27.6421 30 23.5C30 19.3579 26.6421 16 22.5 16C18.3579 16 15 19.3579 15 23.5C15 27.6421 18.3579 31 22.5 31Z" fill="#E57373"/>
<path opacity="0.1" d="M22.5 30C18.533 30 15.284 26.902 15.025 23C15.015 23.166 15 23.331 15 23.5C15 27.636 18.364 31 22.5 31C26.636 31 30 27.636 30 23.5C30 23.331 29.986 23.166 29.975 23C29.715 26.902 26.467 30 22.5 30Z" fill="#010101"/>
<path d="M22.5 28C24.9853 28 27 25.9853 27 23.5C27 21.0147 24.9853 19 22.5 19C20.0147 19 18 21.0147 18 23.5C18 25.9853 20.0147 28 22.5 28Z" fill="#303C42"/>
<path d="M22.5 27C24.433 27 26 25.433 26 23.5C26 21.567 24.433 20 22.5 20C20.567 20 19 21.567 19 23.5C19 25.433 20.567 27 22.5 27Z" fill="white"/>
<path opacity="0.2" d="M20 23.5C20 21.57 21.122 20 22.5 20C20.57 20 19 21.57 19 23.5C19 25.43 20.57 27 22.5 27C21.122 27 20 25.43 20 23.5Z" fill="white"/>
<path opacity="0.1" d="M22.5 20C23.878 20 25 21.57 25 23.5C25 25.43 23.878 27 22.5 27C24.43 27 26 25.43 26 23.5C26 21.57 24.43 20 22.5 20Z" fill="#010101"/>
<path d="M25.5 12C25.7761 12 26 11.7761 26 11.5C26 11.2239 25.7761 11 25.5 11C25.2239 11 25 11.2239 25 11.5C25 11.7761 25.2239 12 25.5 12Z" fill="#303C42"/>
<path d="M29.5 10C29.7761 10 30 9.77614 30 9.5C30 9.22386 29.7761 9 29.5 9C29.2239 9 29 9.22386 29 9.5C29 9.77614 29.2239 10 29.5 10Z" fill="#303C42"/>
<path d="M29.5 12C29.7761 12 30 11.7761 30 11.5C30 11.2239 29.7761 11 29.5 11C29.2239 11 29 11.2239 29 11.5C29 11.7761 29.2239 12 29.5 12Z" fill="#303C42"/>
<path d="M27.5 13C27.7761 13 28 12.7761 28 12.5C28 12.2239 27.7761 12 27.5 12C27.2239 12 27 12.2239 27 12.5C27 12.7761 27.2239 13 27.5 13Z" fill="#303C42"/>
<path d="M29.5 14C29.7761 14 30 13.7761 30 13.5C30 13.2239 29.7761 13 29.5 13C29.2239 13 29 13.2239 29 13.5C29 13.7761 29.2239 14 29.5 14Z" fill="#303C42"/>
<path d="M27.5 11C27.7761 11 28 10.7761 28 10.5C28 10.2239 27.7761 10 27.5 10C27.2239 10 27 10.2239 27 10.5C27 10.7761 27.2239 11 27.5 11Z" fill="#303C42"/>
<path d="M31 23.5C31 19.683 28.47 16.446 25 15.376V14.5C24.9987 14.1909 24.902 13.8897 24.723 13.6377C24.544 13.3856 24.2915 13.195 24 13.092V10.5C24 10.3674 23.9473 10.2402 23.8536 10.1464C23.7598 10.0527 23.6326 10 23.5 10H21.5C21.3674 10 21.2402 10.0527 21.1464 10.1464C21.0527 10.2402 21 10.3674 21 10.5V11.5H19.952C19.612 9.53 17.3 8 14.5 8C11.467 8 9 9.794 9 12C9 14.206 11.467 16 14.5 16C17.3 16 19.612 14.47 19.952 12.5H21V13.092C20.42 13.299 20 13.849 20 14.5V15.376C16.53 16.446 14 19.683 14 23.5C14 26.745 15.829 29.568 18.508 31H18.5C18.3674 31 18.2402 31.0527 18.1464 31.1464C18.0527 31.2402 18 31.3674 18 31.5C18 31.6326 18.0527 31.7598 18.1464 31.8536C18.2402 31.9473 18.3674 32 18.5 32H26.5C26.6326 32 26.7598 31.9473 26.8536 31.8536C26.9473 31.7598 27 31.6326 27 31.5C27 31.3674 26.9473 31.2402 26.8536 31.1464C26.7598 31.0527 26.6326 31 26.5 31H26.492C27.8525 30.2757 28.9907 29.1954 29.7847 27.8743C30.5787 26.5533 30.9988 25.0413 31 23.5ZM25.5 12C25.6326 12 25.7598 11.9473 25.8536 11.8536C25.9473 11.7598 26 11.6326 26 11.5C26 11.3674 25.9473 11.2402 25.8536 11.1464C25.7598 11.0527 25.6326 11 25.5 11C25.3674 11 25.2402 11.0527 25.1464 11.1464C25.0527 11.2402 25 11.3674 25 11.5C25 11.6326 25.0527 11.7598 25.1464 11.8536C25.2402 11.9473 25.3674 12 25.5 12ZM29.5 10C29.6326 10 29.7598 9.94732 29.8536 9.85355C29.9473 9.75979 30 9.63261 30 9.5C30 9.36739 29.9473 9.24021 29.8536 9.14645C29.7598 9.05268 29.6326 9 29.5 9C29.3674 9 29.2402 9.05268 29.1464 9.14645C29.0527 9.24021 29 9.36739 29 9.5C29 9.63261 29.0527 9.75979 29.1464 9.85355C29.2402 9.94732 29.3674 10 29.5 10ZM29.5 12C29.6326 12 29.7598 11.9473 29.8536 11.8536C29.9473 11.7598 30 11.6326 30 11.5C30 11.3674 29.9473 11.2402 29.8536 11.1464C29.7598 11.0527 29.6326 11 29.5 11C29.3674 11 29.2402 11.0527 29.1464 11.1464C29.0527 11.2402 29 11.3674 29 11.5C29 11.6326 29.0527 11.7598 29.1464 11.8536C29.2402 11.9473 29.3674 12 29.5 12ZM27.5 13C27.6326 13 27.7598 12.9473 27.8536 12.8536C27.9473 12.7598 28 12.6326 28 12.5C28 12.3674 27.9473 12.2402 27.8536 12.1464C27.7598 12.0527 27.6326 12 27.5 12C27.3674 12 27.2402 12.0527 27.1464 12.1464C27.0527 12.2402 27 12.3674 27 12.5C27 12.6326 27.0527 12.7598 27.1464 12.8536C27.2402 12.9473 27.3674 13 27.5 13ZM29.5 14C29.6326 14 29.7598 13.9473 29.8536 13.8536C29.9473 13.7598 30 13.6326 30 13.5C30 13.3674 29.9473 13.2402 29.8536 13.1464C29.7598 13.0527 29.6326 13 29.5 13C29.3674 13 29.2402 13.0527 29.1464 13.1464C29.0527 13.2402 29 13.3674 29 13.5C29 13.6326 29.0527 13.7598 29.1464 13.8536C29.2402 13.9473 29.3674 14 29.5 14ZM27.5 11C27.6326 11 27.7598 10.9473 27.8536 10.8536C27.9473 10.7598 28 10.6326 28 10.5C28 10.3674 27.9473 10.2402 27.8536 10.1464C27.7598 10.0527 27.6326 10 27.5 10C27.3674 10 27.2402 10.0527 27.1464 10.1464C27.0527 10.2402 27 10.3674 27 10.5C27 10.6326 27.0527 10.7598 27.1464 10.8536C27.2402 10.9473 27.3674 11 27.5 11Z" fill="url(#paint0_linear_184_28367)" fill-opacity="0.08"/>
</g>
<defs>
<linearGradient id="paint0_linear_184_28367" x1="8.17" y1="13.119" x2="31.619" y2="24.053" gradientUnits="userSpaceOnUse">
<stop stop-color="white" stop-opacity="0.2"/>
<stop offset="1" stop-color="white" stop-opacity="0"/>
</linearGradient>
<clipPath id="clip0_184_28367">
<rect width="40" height="40" fill="white" transform="translate(0.5)"/>
</clipPath>
</defs>
</svg>
