<svg width="41" height="40" viewBox="0 0 41 40" fill="none" xmlns="http://www.w3.org/2000/svg">
<g clip-path="url(#clip0_184_28343)">
<rect x="0.5" width="40" height="40" rx="8" fill="white"/>
<g clip-path="url(#clip1_184_28343)">
<path d="M27.7476 20.5011C27.3435 20.0191 26.9276 19.9999 26.4981 20.5011L21.1128 19.8523L15.6033 19.7122L14.252 20.5011L11.2231 24.3906C11.2259 24.9211 11.2354 25.4617 11.2531 26.0122C11.3448 28.8961 11.6343 31.5022 12.0026 33.7778H15.5015H18.7504C18.8665 32.4639 19.0893 30.9383 19.5004 29.2689C19.9293 27.525 20.4681 26.0144 20.9998 24.7594C21.5315 26.0144 22.0704 27.525 22.4993 29.2689C22.9104 30.9383 23.1331 32.4639 23.2493 33.7778H26.4981H29.997C30.3654 31.5022 30.6548 28.8961 30.7465 26.0122C30.7643 25.4617 30.7737 24.9211 30.7765 24.3906L27.7476 20.5011Z" fill="#1498B7"/>
<path d="M30.6724 20.5011C30.7441 21.7261 30.7835 23.025 30.7763 24.3906C30.1774 24.205 29.2002 23.7667 28.4974 22.7556C27.8624 21.8433 27.7652 20.9167 27.7474 20.5011C28.745 19.8998 29.7209 19.8702 30.6718 20.5011H30.6724ZM11.3275 20.5011C12.1755 19.6789 13.1563 19.7176 14.2519 20.5011C14.2341 20.9167 14.1369 21.8433 13.5019 22.7556C12.7991 23.7667 11.8219 24.205 11.223 24.3906C11.2158 23.025 11.2552 21.7261 11.3269 20.5011H11.3275Z" fill="#087D99"/>
<path d="M30.4971 18.2467C29.9138 18.2467 29.3305 18.2467 28.7477 18.2467C28.7477 18.2467 27.7455 15.0667 27.3799 13.7683H27.3794L25.481 12.2483L25.4799 12.2467C25.5763 11.4144 25.1796 11.0602 24.4988 10.9817H20.9999H17.501C16.6124 10.951 16.0221 11.1607 16.5199 12.2467L16.5188 12.2483L14.6205 13.7683H14.6199C14.2544 15.0667 13.2521 18.2467 13.2521 18.2467C12.6694 18.2467 12.086 18.2467 11.5027 18.2467C11.4333 18.9667 11.3738 19.7189 11.3271 20.5011H11.3277H14.2521H15.5016H20.9999H26.4983H27.7477H30.6721H30.6727C30.6261 19.7189 30.5666 18.9667 30.4971 18.2467Z" fill="#1EA6BC"/>
<path d="M27.9974 8.47666C26.8311 7.53239 25.6648 7.53239 24.4985 8.47666C24.4985 9.33222 24.4985 10.1917 24.4985 10.9817C24.8258 11.4033 25.153 11.825 25.4796 12.2467L25.4808 12.2483L27.0146 12.2478L27.0152 12.2472C27.343 11.8256 27.6702 11.4039 27.9974 10.9817C27.9974 10.1917 27.9974 9.33222 27.9974 8.47666Z" fill="#D14B62"/>
<path d="M27.9974 6.22222C27.9974 6.935 27.9974 7.70444 27.9974 8.47667H24.4985C24.4985 7.70444 24.4985 6.935 24.4985 6.22222C25.6646 6.22222 26.8313 6.22222 27.9974 6.22222Z" fill="#655F68"/>
<path d="M27.4977 13.2361C27.4977 13.4267 27.4555 13.6067 27.3794 13.7683C27.1799 14.1944 26.7483 14.4889 26.2483 14.4889C25.5583 14.4889 24.9988 13.9283 24.9988 13.2361C24.9988 12.8344 25.1877 12.4767 25.481 12.2483C25.6927 12.0822 25.9588 11.9839 26.2483 11.9839C26.5372 11.9839 26.8033 12.0822 27.0149 12.2478C27.3088 12.4767 27.4977 12.8339 27.4977 13.2361ZM23.4994 14.7394C23.4994 15.6578 23.4994 16.5767 23.4994 17.495C22.666 17.9961 21.8333 18.4972 20.9999 18.9978C20.1666 18.4972 19.3338 17.9961 18.5005 17.495C18.5005 16.5767 18.5005 15.6578 18.5005 14.7394C19.3338 14.7394 20.1666 14.7394 20.9999 14.7394C21.8333 14.7394 22.666 14.7394 23.4994 14.7394Z" fill="#E15C63"/>
<path d="M14.002 8.47667C14.002 9.33222 14.002 10.1917 14.002 10.9817C14.3292 11.4039 14.6564 11.8256 14.9842 12.2472L14.9847 12.2478L16.5186 12.2483L16.5197 12.2467C16.8464 11.825 17.1736 11.4033 17.5008 10.9817C17.5008 10.1917 17.5008 9.33222 17.5008 8.47667C16.2201 6.97372 15.0538 6.97372 14.002 8.47667Z" fill="#D14B62"/>
<path d="M17.5008 6.22222C17.5008 6.935 17.5008 7.70444 17.5008 8.47667H14.002C14.002 7.70444 14.002 6.935 14.002 6.22222C15.1681 6.22222 16.3347 6.22222 17.5008 6.22222Z" fill="#655F68"/>
<path d="M16.5186 12.2483C16.812 12.4767 17.0008 12.8344 17.0008 13.2361C17.0008 13.9283 16.4414 14.4889 15.7514 14.4889C15.2514 14.4889 14.8197 14.1944 14.6203 13.7683C14.5442 13.6067 14.502 13.4267 14.502 13.2361C14.502 12.8339 14.6908 12.4767 14.9847 12.2478C15.1964 12.0822 15.4625 11.9839 15.7514 11.9839C16.0408 11.9839 16.307 12.0822 16.5186 12.2483Z" fill="#E15C63"/>
<path d="M11.521 20.5011H11.3277H11.3271C11.3738 19.7217 11.4327 18.9722 11.5021 18.2544C11.4994 18.3433 11.4699 19.2139 11.521 20.5011Z" fill="#1498B7"/>
<path d="M11.5208 20.5011C11.5613 21.5167 11.6525 22.7911 11.8458 24.1467C11.6158 24.2567 11.4025 24.335 11.223 24.3906C11.2158 23.025 11.2552 21.7261 11.3269 20.5011H11.3275H11.5208Z" fill="#097789"/>
<path d="M30.6724 20.5011H30.6719H30.4663C30.5274 19.1411 30.4969 18.2467 30.4969 18.2467C30.5663 18.9667 30.6258 19.7189 30.6724 20.5011Z" fill="#1498B7"/>
<path d="M30.6726 20.5011C30.7442 21.7261 30.7837 23.025 30.7765 24.3906C30.5898 24.3328 30.3665 24.2506 30.1265 24.1339C30.3242 22.7833 30.4209 21.5133 30.4665 20.5011H30.672H30.6726Z" fill="#097789"/>
<path d="M11.8459 24.1467C11.6159 24.2567 11.4026 24.335 11.2231 24.3906C11.2259 24.9211 11.2354 25.4617 11.2531 26.0122C11.3448 28.8961 11.6343 31.5022 12.0026 33.7778H15.5015H18.7504C17.4487 33.7778 16.3793 33.3528 15.5015 32.6433C13.2959 30.8628 12.2954 27.2883 11.8459 24.1467ZM30.1265 24.1339C29.6688 27.2628 28.6676 30.825 26.4982 32.6167C25.6204 33.3422 24.5515 33.7778 23.2493 33.7778H26.4982H29.9971C30.3654 31.5022 30.6549 28.8961 30.7465 26.0122C30.7643 25.4617 30.7738 24.9211 30.7765 24.3906C30.5898 24.3328 30.3665 24.2506 30.1265 24.1339Z" fill="#0D87A3"/>
<path d="M15.7237 23.5071V25.0101C15.7237 25.1328 15.6242 25.2323 15.5015 25.2323C15.3788 25.2323 15.2793 25.1328 15.2793 25.0101V23.5071C15.2793 23.3843 15.3788 23.2848 15.5015 23.2848C15.6242 23.2848 15.7237 23.3843 15.7237 23.5071ZM15.5015 26.2909C15.3788 26.2909 15.2793 26.3904 15.2793 26.5131V28.0162C15.2793 28.1389 15.3788 28.2384 15.5015 28.2384C15.6242 28.2384 15.7237 28.1389 15.7237 28.0162V26.5131C15.7237 26.3904 15.6242 26.2909 15.5015 26.2909ZM15.5015 29.297C15.3788 29.297 15.2793 29.3965 15.2793 29.5192V31.0222C15.2793 31.1449 15.3788 31.2444 15.5015 31.2444C15.6242 31.2444 15.7237 31.1449 15.7237 31.0222V29.5192C15.7237 29.3965 15.6242 29.297 15.5015 29.297ZM11.5028 18.0243H13.0891C13.2902 17.384 14.0571 14.934 14.3848 13.7829C14.3172 13.6138 14.2796 13.4294 14.2796 13.2364C14.2796 12.8441 14.4336 12.4874 14.6837 12.2229L13.8264 11.1181C13.7962 11.0791 13.7797 11.0312 13.7797 10.9818V6.22222C13.7797 6.0995 13.8792 6 14.0019 6H17.5008C17.6235 6 17.723 6.0995 17.723 6.22222V10.7596H24.2764V6.22222C24.2764 6.0995 24.3759 6 24.4986 6H27.9974C28.1202 6 28.2197 6.0995 28.2197 6.22222V10.9818C28.2197 11.0312 28.2032 11.0791 28.173 11.1181L27.3157 12.2229C27.5659 12.4873 27.7198 12.8441 27.7198 13.2363C27.7198 13.4294 27.6822 13.6138 27.6146 13.7829C27.9423 14.9339 28.7093 17.3839 28.9103 18.0242H30.4967C30.6112 18.0242 30.7068 18.1112 30.7178 18.2251C30.967 20.8057 31.0514 23.428 30.9687 26.0192C30.8856 28.6217 30.6324 31.2439 30.2162 33.8133C30.1988 33.9209 30.1058 33.9999 29.9968 33.9999H23.2491C23.1339 33.9999 23.0378 33.912 23.0277 33.7973C22.8947 32.2931 22.6443 30.7872 22.2835 29.3217C21.951 27.9709 21.5198 26.6345 20.9998 25.3418C20.4798 26.6345 20.0486 27.9708 19.7161 29.3217C19.3553 30.7872 19.1049 32.293 18.9718 33.7973C18.9617 33.912 18.8656 33.9999 18.7505 33.9999H12.0026C11.8936 33.9999 11.8007 33.9209 11.7833 33.8133C11.367 31.244 11.1138 28.6217 11.0307 26.0192C10.9481 23.428 11.0324 20.8057 11.2816 18.2252C11.2926 18.1112 11.3883 18.0243 11.5028 18.0243ZM11.4446 24.0782C12.0393 23.8483 12.7685 23.4211 13.3198 22.6286C13.7921 21.9497 13.9616 21.2507 14.0134 20.7232H11.5379C11.476 21.8401 11.4448 22.9603 11.4446 24.0782ZM30.5246 26.005C30.54 25.5214 30.5494 25.0367 30.5532 24.5513C29.8705 24.3138 28.9787 23.8365 28.315 22.8824C27.7765 22.1084 27.5923 21.3128 27.5399 20.7233H26.7203V22.0041C26.7203 22.1268 26.6208 22.2263 26.4981 22.2263C26.3753 22.2263 26.2758 22.1268 26.2758 22.0041V20.7233H20.9998H15.7237V22.0041C15.7237 22.1268 15.6242 22.2263 15.5015 22.2263C15.3788 22.2263 15.2793 22.1268 15.2793 22.0041V20.7233H14.4597C14.4073 21.3128 14.223 22.1085 13.6846 22.8824C13.0208 23.8365 12.129 24.3138 11.4464 24.5513C11.4501 25.0367 11.4596 25.5214 11.475 26.005C11.5554 28.5254 11.7967 31.0648 12.1921 33.5556H15.2793V32.2747C15.2793 32.152 15.3788 32.0525 15.5015 32.0525C15.6242 32.0525 15.7237 32.152 15.7237 32.2747V33.5556H18.5477C18.6868 32.0962 18.9345 30.6372 19.2845 29.2156C19.6653 27.6684 20.1736 26.1401 20.7951 24.6729C20.8299 24.5907 20.9105 24.5374 20.9998 24.5374C21.0891 24.5374 21.1696 24.5908 21.2044 24.6729C21.826 26.1401 22.3343 27.6684 22.7151 29.2156C23.0651 30.6372 23.3127 32.0963 23.4518 33.5556H26.2758V32.2747C26.2758 32.152 26.3753 32.0525 26.4981 32.0525C26.6208 32.0525 26.7203 32.152 26.7203 32.2747V33.5556H29.8075C30.2029 31.0648 30.4441 28.5254 30.5246 26.005ZM18.7228 14.9616V17.3693L20.9997 18.7387L23.2767 17.3693V14.9616H18.7228ZM30.4616 20.7233H27.9861C28.038 21.2507 28.2074 21.9497 28.6798 22.6287C29.2311 23.4211 29.9602 23.8483 30.5549 24.0782C30.5547 22.9603 30.5234 21.8401 30.4616 20.7233ZM25.2207 13.2363C25.2207 13.8044 25.6816 14.2666 26.2481 14.2666C26.8146 14.2666 27.2754 13.8044 27.2754 13.2363C27.2754 12.6682 26.8146 12.2061 26.2481 12.2061C25.6816 12.2061 25.2207 12.6682 25.2207 13.2363ZM27.7753 10.9057V8.699H24.7209V10.9057L25.5307 11.9493C25.7431 11.83 25.9877 11.7616 26.2481 11.7616C26.5084 11.7616 26.7531 11.83 26.9655 11.9493L27.7753 10.9057ZM24.7209 6.44444V8.25456H27.7753V6.44444H24.7209ZM14.2242 6.44444V8.25456H17.2786V6.44444H14.2242ZM14.2242 10.9057L15.034 11.9494C15.2464 11.8301 15.4911 11.7617 15.7514 11.7617C16.0118 11.7617 16.2564 11.8301 16.4688 11.9494L17.2786 10.9058V8.699H14.2242V10.9057ZM15.7514 14.2667C16.3179 14.2667 16.7788 13.8045 16.7788 13.2364C16.7788 12.6683 16.3179 12.2061 15.7514 12.2061C15.1849 12.2061 14.7241 12.6683 14.7241 13.2364C14.7241 13.8045 15.1849 14.2667 15.7514 14.2667ZM11.7049 18.4687C11.6489 19.0702 11.6021 19.6739 11.5641 20.2788H20.7775V19.1237L18.386 17.6854C18.3192 17.6452 18.2783 17.5729 18.2783 17.4949V14.7394C18.2783 14.6167 18.3778 14.5172 18.5006 14.5172H20.7775V13.9879C20.7775 13.8652 20.877 13.7657 20.9997 13.7657C21.1224 13.7657 21.2219 13.8652 21.2219 13.9879V14.5172H23.4989C23.6216 14.5172 23.7211 14.6167 23.7211 14.7394V17.4949C23.7211 17.5729 23.6803 17.6452 23.6134 17.6854L21.2219 19.1237V20.2788H30.4353C30.3973 19.6739 30.3506 19.0702 30.2945 18.4687H28.7472C28.6502 18.4687 28.5644 18.4058 28.5353 18.3133C28.5263 18.2847 27.7203 15.7252 27.2938 14.2728C27.0269 14.5432 26.6567 14.7111 26.248 14.7111C25.4365 14.7111 24.7762 14.0496 24.7762 13.2364C24.7762 12.8441 24.9302 12.4874 25.1803 12.2229L24.3898 11.2041H21.2219V12.4849C21.2219 12.6076 21.1224 12.7071 20.9997 12.7071C20.877 12.7071 20.7775 12.6076 20.7775 12.4849V11.2041H17.6097L16.8191 12.2229C17.0693 12.4873 17.2232 12.8441 17.2232 13.2363C17.2232 14.0495 16.5629 14.7111 15.7514 14.7111C15.3428 14.7111 14.9726 14.5432 14.7056 14.2728C14.2791 15.7251 13.4732 18.2846 13.4642 18.3132C13.435 18.4057 13.3492 18.4687 13.2522 18.4687L11.7049 18.4687ZM26.498 23.2848C26.3753 23.2848 26.2758 23.3843 26.2758 23.5071V25.0101C26.2758 25.1328 26.3753 25.2323 26.498 25.2323C26.6207 25.2323 26.7202 25.1328 26.7202 25.0101V23.5071C26.7202 23.3843 26.6207 23.2848 26.498 23.2848ZM26.498 26.2909C26.3753 26.2909 26.2758 26.3904 26.2758 26.5131V28.0162C26.2758 28.1389 26.3753 28.2384 26.498 28.2384C26.6207 28.2384 26.7202 28.1389 26.7202 28.0162V26.5131C26.7202 26.3904 26.6207 26.2909 26.498 26.2909ZM26.498 29.297C26.3753 29.297 26.2758 29.3965 26.2758 29.5192V31.0222C26.2758 31.1449 26.3753 31.2444 26.498 31.2444C26.6207 31.2444 26.7202 31.1449 26.7202 31.0222V29.5192C26.7202 29.3965 26.6207 29.297 26.498 29.297Z" fill="#3A322B"/>
</g>
</g>
<defs>
<clipPath id="clip0_184_28343">
<rect width="40" height="40" fill="white" transform="translate(0.5)"/>
</clipPath>
<clipPath id="clip1_184_28343">
<rect width="19.9995" height="28" fill="white" transform="translate(11 6)"/>
</clipPath>
</defs>
</svg>
