<svg width="36" height="36" viewBox="0 0 36 36" fill="none" xmlns="http://www.w3.org/2000/svg">
<path d="M13.9828 20.8444L15.5662 20.0194C15.5662 20.0194 15.8453 19.9306 15.7058 19.2833C15.5693 18.6328 15.5217 15.4313 15.5217 15.4313C15.5217 15.4313 15.5915 11.8585 15.7026 11.189C15.7628 10.8305 15.0902 10.3006 14.4524 9.88491C13.9003 9.52636 13.3768 9.25346 13.3768 9.25346C13.3768 9.25346 13.8178 11.2271 13.7099 13.6322C13.6021 16.0373 13.2086 18.6868 13.2086 18.6868C13.2086 18.6868 12.8628 20.2257 13.9828 20.8444Z" fill="#E0E2E2"/>
<path d="M13.9829 20.8444L15.5662 20.0194C15.5662 20.0194 15.8454 19.9306 15.7058 19.2833C15.5694 18.6328 15.5218 15.4313 15.5218 15.4313C15.5218 15.4313 15.5916 11.8585 15.7026 11.189C15.7629 10.8305 15.0903 10.3006 14.4525 9.88491V14.1082C14.4525 14.1082 14.37 19.6958 13.9829 20.8444Z" fill="#C4C6C6"/>
<path d="M13.3767 9.25346C13.3767 9.25346 16.4132 12.3249 17.6983 16.123C17.6983 16.123 18.6883 18.3949 18.9136 20.5303C18.9136 20.5303 19.3007 22.9925 20.3351 23.8873C20.3351 23.8873 23.7777 27.3776 30.4093 26.9968C30.4093 26.9968 33.9979 26.9524 33.6901 25.9307C33.6394 25.7626 33.5791 25.5975 33.5156 25.4357C33.1825 24.6076 32.6875 23.8746 32.3956 23.5637C32.0434 23.1893 29.6541 20.2796 29.2606 19.5689C28.8672 18.8549 28.68 18.2648 28.0549 18.068C27.4298 17.8713 26.846 17.7222 26.5668 16.8528C26.5668 16.8528 25.6371 12.7247 24.4726 10.7892C24.4726 10.7892 22.6926 7.52736 21.087 6.20105C21.087 6.20105 18.5106 3.15498 15.1599 3.00269C15.1599 3.00269 13.8494 2.8948 13.2434 3.97995C12.9642 4.48447 12.6945 5.34118 12.6183 6.25816C12.5263 7.3243 12.6881 8.47292 13.3767 9.25346Z" fill="#FF5230"/>
<path d="M13.5121 3.91967C14.5592 2.495 17.0944 3.70073 17.0944 3.70073C20.7687 5.16032 23.1294 9.07896 24.2463 10.8273C25.3663 12.5724 26.4103 17.3287 26.4103 17.3287C26.9148 18.233 27.9619 18.2775 27.9619 18.2775C29.1327 18.6455 28.698 19.6736 28.698 19.6736C28.5933 20.0163 27.6509 20.4319 26.5404 20.708C26.2421 20.5747 25.9058 20.3431 25.6836 19.9401C25.6836 19.9401 24.6398 15.1838 23.5197 13.4386C22.4028 11.6903 20.0421 7.77169 16.3678 6.31212C16.3678 6.31212 15.0795 5.69973 13.9626 5.86471C13.5819 5.37926 13.4169 4.99849 13.3503 4.72562C13.2804 4.4464 13.3407 4.14814 13.5121 3.91967Z" fill="#E5392C"/>
<path d="M16.3676 6.31211C20.0418 7.77168 22.4026 11.6903 23.5195 13.4386C24.4382 14.8701 25.3057 18.3277 25.5879 19.5243C25.7094 20.0396 26.0488 20.4858 26.5312 20.7039L26.5401 20.708C25.7088 20.9142 24.7886 21.0443 24.0494 21.0126C22.3264 20.9364 21.7553 19.7624 21.5871 18.7121C21.4189 17.6619 20.7463 15.0125 20.7463 15.0125C20.026 11.0335 17.0941 8.80926 15.0032 6.94989C14.5463 6.54374 14.2067 6.17883 13.9624 5.86471C15.0793 5.69973 16.3676 6.31211 16.3676 6.31211Z" fill="#2D2C2B"/>
<path d="M13.3767 9.25347C13.3767 9.25347 16.4132 12.3249 17.6983 16.123C17.6983 16.123 18.6883 18.3949 18.9136 20.5303C18.9136 20.5303 19.3007 22.9925 20.3351 23.8873C20.3351 23.8873 23.7777 27.3776 30.4093 26.9969C30.4093 26.9969 33.9979 26.9524 33.6901 25.9307C33.6394 25.7626 33.5791 25.5976 33.5156 25.4357C29.4923 25.6103 26.7604 24.6457 23.3748 22.7355C19.986 20.8286 19.4625 16.4562 18.8786 14.3017C18.2948 12.1472 16.0769 9.00599 14.4142 7.99062C13.0626 7.16565 12.704 6.48663 12.6183 6.25816C12.5263 7.3243 12.6881 8.47292 13.3767 9.25347Z" fill="#E5392C"/>
<path d="M3.67913 26.8188L5.26245 25.9938C5.26245 25.9938 5.54164 25.905 5.40204 25.2577C5.26563 24.6072 5.21802 21.4057 5.21802 21.4057C5.21802 21.4057 5.28782 17.8329 5.39887 17.1634C5.45914 16.8049 4.7865 16.275 4.14873 15.8593C3.59663 15.5008 3.07308 15.2279 3.07308 15.2279C3.07308 15.2279 3.51413 17.2015 3.40622 19.6066C3.29835 22.0117 2.9049 24.6612 2.9049 24.6612C2.9049 24.6612 2.55906 26.2001 3.67913 26.8188Z" fill="#E0E2E2"/>
<path d="M3.6792 26.8188L5.26252 25.9938C5.26252 25.9938 5.5417 25.905 5.40211 25.2577C5.2657 24.6072 5.21809 21.4057 5.21809 21.4057C5.21809 21.4057 5.28789 17.8329 5.39894 17.1634C5.4592 16.8049 4.78657 16.275 4.1488 15.8593V20.0826C4.1488 20.0826 4.06629 25.6702 3.6792 26.8188Z" fill="#C4C6C6"/>
<path d="M3.07296 15.2279C3.07296 15.2279 6.1095 18.2993 7.39457 22.0974C7.39457 22.0974 8.38455 24.3693 8.60986 26.5047C8.60986 26.5047 8.99695 28.9669 10.0313 29.8617C10.0313 29.8617 13.474 33.352 20.1056 32.9713C20.1056 32.9713 23.6942 32.9268 23.3864 31.9051C23.3357 31.737 23.2754 31.572 23.2119 31.4101C22.8788 30.582 22.3838 29.849 22.0919 29.5381C21.7397 29.1637 19.3504 26.254 18.9569 25.5433C18.5635 24.8293 18.3763 24.2392 17.7512 24.0424C17.1261 23.8457 16.5423 23.6966 16.2631 22.8272C16.2631 22.8272 15.3334 18.6991 14.1689 16.7636C14.1689 16.7636 12.3889 13.5018 10.7833 12.1755C10.7833 12.1755 8.20688 9.12939 4.85618 8.97709C4.85618 8.97709 3.54573 8.8692 2.93968 9.95436C2.6605 10.4589 2.39076 11.3156 2.31461 12.2326C2.22258 13.2987 2.38441 14.4473 3.07296 15.2279Z" fill="#FF5230"/>
<path d="M3.20789 9.89407C4.25495 8.4694 6.79017 9.67513 6.79017 9.67513C10.4645 11.1347 12.8252 15.0534 13.9421 16.8017C15.0621 18.5468 16.1061 23.3031 16.1061 23.3031C16.6106 24.2074 17.6577 24.2519 17.6577 24.2519C18.8285 24.6199 18.3938 25.648 18.3938 25.648C18.2891 25.9907 17.3467 26.4063 16.2362 26.6824C15.9379 26.5491 15.6016 26.3175 15.3794 25.9145C15.3794 25.9145 14.3356 21.1582 13.2155 19.413C12.0986 17.6647 9.73785 13.7461 6.06358 12.2865C6.06358 12.2865 4.77533 11.6741 3.65843 11.8391C3.27769 11.3537 3.11268 10.9729 3.04606 10.7C2.97623 10.4208 3.03654 10.1225 3.20789 9.89407Z" fill="#E5392C"/>
<path d="M6.06384 12.2865C9.73812 13.7461 12.0988 17.6647 13.2157 19.413C14.1345 20.8445 15.002 24.3021 15.2842 25.4987C15.4057 26.014 15.7451 26.4602 16.2275 26.6784L16.2364 26.6824C15.4051 26.8886 14.4849 27.0187 13.7456 26.987C12.0227 26.9108 11.4516 25.7368 11.2834 24.6866C11.1152 23.6363 10.4425 20.9869 10.4425 20.9869C9.72227 17.0079 6.79043 14.7837 4.69944 12.9243C4.24255 12.5181 3.90302 12.1532 3.65869 11.8391C4.77559 11.6741 6.06384 12.2865 6.06384 12.2865Z" fill="#2D2C2B"/>
<path d="M3.07296 15.2279C3.07296 15.2279 6.1095 18.2993 7.39458 22.0974C7.39458 22.0974 8.38455 24.3693 8.60986 26.5047C8.60986 26.5047 8.99695 28.9669 10.0313 29.8617C10.0313 29.8617 13.474 33.352 20.1056 32.9712C20.1056 32.9712 23.6942 32.9268 23.3864 31.9051C23.3357 31.7369 23.2754 31.5719 23.2119 31.4101C19.1886 31.5847 16.4567 30.6201 13.0711 28.7099C9.68229 26.803 9.15878 22.4306 8.57492 20.2761C7.9911 18.1216 5.77318 14.9804 4.1105 13.965C2.75884 13.14 2.40029 12.461 2.31461 12.2326C2.22258 13.2987 2.38441 14.4473 3.07296 15.2279Z" fill="#E5392C"/>
<path d="M32.7221 22.9808C32.5393 23.2323 32.2511 23.3845 31.9446 23.438C31.7042 23.48 31.3852 23.5127 31.1005 23.4672C30.973 23.4469 30.8525 23.4109 30.7488 23.3531C30.2 23.0466 29.2765 21.8888 29.2765 21.8888C29.2765 21.8888 29.3298 21.7341 29.4252 21.5155C29.6854 20.9217 30.2591 19.8567 30.931 20.1483C31.677 20.4723 33.5039 21.9067 32.7221 22.9808ZM29.4481 24.3794C29.3323 24.8009 29.005 25.2776 28.5175 25.6645C27.7629 26.2635 26.3136 24.814 25.9183 23.7718C25.6205 22.9869 27.2197 22.672 28.027 22.5643C28.2915 22.5291 28.4709 22.5161 28.4709 22.5161C28.4709 22.5161 29.2362 23.2687 29.4396 23.7599C29.5116 23.9339 29.5116 24.1482 29.4481 24.3794Z" fill="#FFD651"/>
<path d="M29.4395 23.7599C29.5115 23.9339 29.5115 24.1482 29.4479 24.3794C28.9442 24.0945 28.4697 23.5483 28.1869 23.0721C28.075 22.8837 28.0304 22.7136 28.0269 22.5643C28.2914 22.5291 28.4707 22.5161 28.4707 22.5161C28.4707 22.5161 29.2361 23.2687 29.4395 23.7599ZM31.1004 23.4672C30.9729 23.4469 30.8523 23.4109 30.7487 23.3531C30.1999 23.0466 29.2764 21.8888 29.2764 21.8888C29.2764 21.8888 29.3297 21.7341 29.4251 21.5155C30.2001 21.6623 30.7277 22.6766 30.9554 23.0822C31.0267 23.2097 31.0759 23.3395 31.1004 23.4672Z" fill="#DDB040"/>
<path d="M28.572 22.0156C28.572 22.0156 28.0044 22.4113 28.3938 23.067C28.7831 23.7227 29.5999 24.5347 30.2576 24.3068C30.9152 24.0788 31.019 23.5566 30.7492 23.0756C30.4793 22.5945 29.7131 21.1069 28.572 22.0156Z" fill="#FFD651"/>
<path d="M22.2802 29.0375C22.0974 29.289 21.8092 29.4412 21.5027 29.4947C21.2623 29.5367 20.9433 29.5694 20.6586 29.5239C20.5311 29.5036 20.4106 29.4676 20.3069 29.4098C19.7581 29.1033 18.8346 27.9455 18.8346 27.9455C18.8346 27.9455 18.8879 27.7908 18.9833 27.5722C19.2435 26.9784 19.8172 25.9134 20.4891 26.205C21.2351 26.529 23.062 27.9634 22.2802 29.0375ZM19.0062 30.4361C18.8904 30.8576 18.5631 31.3344 18.0757 31.7212C17.321 32.3202 15.8718 30.8707 15.4764 29.8285C15.1786 29.0437 16.7778 28.7288 17.5851 28.621C17.8496 28.5858 18.029 28.5728 18.029 28.5728C18.029 28.5728 18.7943 29.3254 18.9977 29.8166C19.0697 29.9906 19.0697 30.2049 19.0062 30.4361Z" fill="#FFD651"/>
<path d="M18.9976 29.8166C19.0696 29.9906 19.0696 30.2049 19.006 30.4361C18.5023 30.1513 18.0278 29.605 17.745 29.1288C17.6331 28.9404 17.5885 28.7703 17.585 28.621C17.8495 28.5858 18.0288 28.5729 18.0288 28.5729C18.0288 28.5729 18.7942 29.3254 18.9976 29.8166ZM20.6585 29.5239C20.531 29.5036 20.4104 29.4676 20.3068 29.4098C19.758 29.1033 18.8345 27.9455 18.8345 27.9455C18.8345 27.9455 18.8878 27.7908 18.9832 27.5722C19.7582 27.7191 20.2858 28.7333 20.5135 29.1389C20.5848 29.2664 20.634 29.3962 20.6585 29.5239Z" fill="#DDB040"/>
<path d="M18.1301 28.0723C18.1301 28.0723 17.5625 28.468 17.9519 29.1237C18.3412 29.7794 19.158 30.5914 19.8157 30.3635C20.4733 30.1355 20.5771 29.6133 20.3073 29.1323C20.0374 28.6513 19.2712 27.1636 18.1301 28.0723Z" fill="#FFD651"/>
</svg>
